<svg version="1.1" id="Layer_1" xmlns="http://www.w3.org/2000/svg" xmlns:xlink="http://www.w3.org/1999/xlink" x="0px" y="0px"
	 width="100%" viewBox="0 0 6000 3667" enable-background="new 0 0 6000 3667" xml:space="preserve">
<path fill="none" opacity="1.000000" stroke="#000000" stroke-linecap="round" stroke-linejoin="round" stroke-width="6.000000"
	d="
M3400.000000,2562.000000 
	C3428.525879,2591.063965 3432.987793,2643.320801 3409.991943,2679.994873 
	C3374.325439,2736.876953 3306.009277,2755.258545 3248.245605,2711.674561 
	C3213.703857,2685.612549 3200.311768,2648.811279 3208.229004,2606.042480 
	C3216.028320,2563.913086 3240.486816,2534.818604 3282.038330,2522.125488 
	C3327.379883,2508.274658 3357.951660,2517.472412 3400.496826,2556.455322 
	C3450.300293,2510.998291 3499.980713,2465.311768 3550.042236,2420.046631 
	C3615.871094,2360.524170 3680.403320,2299.418457 3748.517334,2242.620361 
	C3800.745361,2199.069092 3862.427979,2174.217529 3931.995605,2171.867920 
	C4050.656982,2167.860352 4169.334961,2171.046143 4288.000488,2170.060303 
	C4359.152344,2169.469238 4419.219238,2113.765381 4419.608887,2039.997925 
	C4420.721680,1829.337158 4420.136719,1618.666504 4419.924805,1408.000122 
	C4419.852051,1335.797363 4360.859863,1273.900024 4284.000000,1273.912964 
	C3457.333252,1274.052612 2630.666748,1274.135986 1804.000122,1273.781006 
	C1724.871338,1273.747070 1666.323608,1341.943726 1667.507935,1410.008545 
	C1669.363403,1516.642944 1668.000000,1623.333374 1668.000000,1730.000000 
"/>
<path fill="none" opacity="1.000000" stroke="#000000" stroke-linecap="round" stroke-linejoin="round" stroke-width="6.000000"
	d="
M1510.000000,1986.000000 
	C1510.000000,2014.000000 1511.162354,2042.058838 1509.747437,2069.987305 
	C1507.156128,2121.135498 1556.640503,2174.455322 1614.000366,2174.403564 
	C2305.999756,2173.780273 2998.000000,2174.000000 3690.000000,2174.000000 
"/>
<path fill="none" opacity="1.000000" stroke="#000000" stroke-linecap="round" stroke-linejoin="round" stroke-width="6.000000"
	d="
M4282.000000,1746.000000 
	C4282.000000,1807.333374 4280.753906,1868.698730 4282.330566,1929.991455 
	C4284.106934,1999.038086 4227.012695,2054.499023 4157.999512,2054.422852 
	C3512.666992,2053.709961 2867.333252,2054.000000 2222.000000,2054.000000 
"/>
<path fill="none" opacity="1.000000" stroke="#000000" stroke-linecap="round" stroke-linejoin="round" stroke-width="6.000000"
	d="
M3096.000000,1180.000000 
	C2601.333252,1180.000000 2106.666016,1180.362061 1612.000854,1179.526245 
	C1552.417358,1179.425659 1509.072754,1224.742676 1509.483032,1282.003662 
	C1510.848999,1472.660522 1510.000000,1663.333374 1510.000000,1854.000000 
"/>
<path fill="none" opacity="1.000000" stroke="#000000" stroke-linecap="round" stroke-linejoin="round" stroke-width="6.000000"
	d="
M4566.000000,1842.000000 
	C4563.386230,1833.483154 4564.016602,1824.708984 4564.015625,1816.000000 
	C4563.995605,1640.000000 4563.363281,1463.996338 4564.363281,1288.002075 
	C4564.689941,1230.494873 4524.401855,1179.709351 4455.999512,1179.808594 
	C4152.000488,1180.249878 3848.000000,1180.000000 3544.000000,1180.000000 
"/>
<path fill="none" opacity="1.000000" stroke="#000000" stroke-linecap="round" stroke-linejoin="round" stroke-width="6.000000"
	d="
M3379.000000,2624.000000 
	C3376.393311,2583.286377 3341.738281,2557.135986 3308.103027,2562.631348 
	C3268.046875,2569.175781 3245.311523,2599.261719 3254.025391,2641.994873 
	C3259.729004,2669.965332 3286.663818,2688.639893 3320.000000,2688.000000 
	C3347.303467,2687.475342 3373.181396,2665.218750 3377.956299,2637.992432 
	C3378.886963,2632.686768 3375.079834,2624.497559 3386.000000,2626.000000 
"/>
</svg>