<svg version="1.1" id="Layer_1" xmlns="http://www.w3.org/2000/svg" xmlns:xlink="http://www.w3.org/1999/xlink" x="0px" y="0px"
	 width="100%" viewBox="0 0 1024 624" enable-background="new 0 0 1024 624" xml:space="preserve">
<path fill="#000000" opacity="1.000000" stroke="none" 
	d="
M617.255371,420.150452 
	C637.693237,420.336151 657.663147,420.583679 677.633850,420.701050 
	C681.758423,420.725281 683.759827,422.202118 683.703979,426.581146 
	C683.612732,433.733643 683.847961,440.891144 683.993591,448.045563 
	C684.082642,452.419312 682.105042,454.334686 677.637878,454.321289 
	C651.663269,454.243378 625.687988,454.243195 599.713623,454.361084 
	C595.390747,454.380676 593.680298,452.599792 593.728638,448.420013 
	C593.813477,441.094971 593.803528,433.766541 593.676331,426.442230 
	C593.607056,422.454041 595.321838,420.657257 599.323608,420.631256 
	C605.145752,420.593414 610.966431,420.332184 617.255371,420.150452 
z"/>
<path fill="#000000" opacity="1.000000" stroke="none" 
	d="
M532.995605,172.994431 
	C534.184326,173.053162 535.780334,173.152664 535.872559,174.436157 
	C536.274597,180.029434 537.279846,185.742325 535.070007,191.147842 
	C534.106079,193.505737 531.619202,194.154221 529.168152,194.157150 
	C511.696075,194.177963 494.223480,194.248016 476.752319,194.121704 
	C471.754272,194.085587 469.676331,191.698868 469.626831,186.503845 
	C469.547546,178.184631 469.577820,169.863449 469.656555,161.543991 
	C469.715973,155.266006 471.591858,153.198730 478.058685,153.076859 
	C488.371704,152.882523 498.691254,153.030289 509.008026,153.036652 
	C510.671997,153.037674 512.345093,152.950226 513.997498,153.093582 
	C515.862732,153.255386 518.735168,152.653412 518.650696,155.438339 
	C518.573669,157.974289 515.831360,157.123703 514.175232,157.134766 
	C503.359863,157.207001 492.543793,157.170197 481.727936,157.169098 
	C479.963837,157.168915 478.199738,157.169052 475.097656,157.169052 
	C479.364349,162.145096 483.463409,165.048828 487.172394,168.226044 
	C490.313110,166.440323 489.660889,162.336273 492.965057,160.957138 
	C495.968628,163.193375 496.195953,166.330429 496.360931,169.325668 
	C494.397125,170.812607 492.360382,167.965286 490.978516,170.278870 
	C495.615417,179.926453 504.111237,181.686798 511.659882,174.549469 
	C512.625305,173.636627 513.514404,172.643127 514.819824,171.247894 
	C515.455139,170.557114 515.709473,170.305420 515.963806,170.053741 
	C520.087158,168.077484 522.818726,164.497482 526.610413,161.231216 
	C521.864136,157.654846 519.394409,153.182083 519.168030,147.513016 
	C518.978210,142.760071 520.230713,141.305359 524.866943,141.915771 
	C530.379395,142.641541 534.945496,145.114258 538.181946,150.262253 
	C542.900391,148.115540 547.534668,146.022537 552.942810,147.364227 
	C556.744263,148.307327 557.813049,150.237701 556.866760,153.845978 
	C555.166077,160.331177 549.939331,165.527145 543.979309,165.067688 
	C539.389221,164.713821 536.847473,166.074600 535.263977,170.138779 
	C534.919434,171.023178 534.052673,171.704163 532.937805,172.929077 
	C531.045959,174.092407 529.511780,175.872375 528.079529,174.069611 
	C526.532837,172.122864 528.761658,171.237244 529.916809,170.209000 
	C532.188110,168.187271 533.935547,165.936279 533.996338,162.653397 
	C530.455444,162.711441 522.515381,169.308716 519.439453,174.596680 
	C522.903870,178.381485 526.507996,182.108749 531.444397,185.517395 
	C532.360107,180.821869 531.525635,176.730377 532.995605,172.994431 
M525.348633,186.013016 
	C522.784119,183.638336 520.208191,181.275879 517.659302,178.884506 
	C516.045532,177.370468 514.683472,177.538071 512.851196,178.845276 
	C504.778442,184.604752 501.103790,184.616592 492.966370,179.256836 
	C491.731934,178.443802 490.681091,177.144623 489.038818,178.495041 
	C485.124268,181.713837 481.223114,184.942276 477.666260,189.645874 
	C494.828064,189.645874 511.174683,189.645874 527.467957,189.645874 
	C527.846375,187.793533 526.422974,187.394531 525.348633,186.013016 
M484.964478,176.555069 
	C485.973541,175.440964 487.345612,174.195114 485.850800,172.743683 
	C482.160583,169.160629 478.502930,165.487030 473.660583,162.513412 
	C473.660583,170.567688 473.660583,177.766144 473.660583,185.417542 
	C478.572296,183.656418 481.008331,179.675507 484.964478,176.555069 
M550.973083,157.357040 
	C551.980835,155.534164 554.170593,153.168106 551.688782,151.742203 
	C548.494812,149.907181 545.015747,150.935638 542.082153,153.690323 
	C543.632996,154.873871 546.172363,152.756821 546.766357,155.700592 
	C545.970337,158.294327 542.055908,157.810913 541.185974,160.853241 
	C545.249023,162.414459 547.993774,160.542557 550.973083,157.357040 
M530.799866,148.161926 
	C528.710571,146.339188 526.404846,145.523132 523.721252,146.351532 
	C522.796326,153.572464 525.909424,157.709763 532.055969,157.294891 
	C530.588684,154.521759 526.945618,151.920273 530.799866,148.161926 
z"/>
<path fill="#000000" opacity="1.000000" stroke="none" 
	d="
M516.764832,454.866974 
	C456.639984,453.911255 396.986511,454.590820 337.335815,454.335571 
	C330.096283,454.304596 329.008881,453.197601 328.959259,445.909882 
	C328.921814,440.411072 328.895325,434.911774 328.926483,429.413025 
	C328.970093,421.708740 329.997223,420.653503 337.499634,420.652466 
	C409.986725,420.642181 482.473846,420.641449 554.960938,420.643707 
	C563.459412,420.643982 571.958679,420.610809 580.455994,420.719727 
	C586.674805,420.799438 588.090759,422.903046 585.996155,430.798157 
	C585.806213,422.825317 581.414795,423.258972 576.668091,423.264587 
	C497.848999,423.357819 419.029816,423.324646 340.210632,423.314606 
	C332.082794,423.313568 332.083923,423.298431 332.094269,431.656250 
	C332.099823,436.155457 332.079132,440.654816 332.108856,445.153839 
	C332.150696,451.480652 332.326843,451.668701 338.543549,451.673706 
	C358.539978,451.689728 378.536377,451.680084 398.532806,451.689972 
	C458.855438,451.719788 519.178040,451.749390 579.500671,451.805328 
	C581.784424,451.807465 584.044006,451.674866 586.822327,450.705292 
	C585.711853,454.772369 583.004578,454.327454 580.711365,454.336151 
	C564.214478,454.398590 547.717163,454.363525 531.220276,454.431641 
	C526.560059,454.450897 521.900818,454.710388 516.764832,454.866974 
z"/>
<path fill="#000000" opacity="1.000000" stroke="none" 
	d="
M574.852417,216.901733 
	C581.045471,213.199966 583.075256,213.561462 589.758057,219.393707 
	C592.738647,217.759094 594.842773,214.367279 599.045959,214.580658 
	C603.017090,214.782242 605.296143,217.294983 607.730652,219.884979 
	C609.704956,215.498077 614.436707,213.491806 620.185059,214.826904 
	C624.841736,215.908432 626.359314,219.487015 626.327271,223.909775 
	C626.286377,229.548981 624.115723,232.356003 618.791504,233.222076 
	C616.958252,233.520279 615.600098,233.973709 615.060059,235.876328 
	C614.513794,237.800705 613.200989,238.548706 611.266418,238.206787 
	C609.051941,237.815384 609.000671,236.029572 608.941040,234.359909 
	C608.864685,232.223083 608.922546,230.081436 608.922546,226.381485 
	C605.701050,230.208237 603.426270,233.149933 599.397766,233.253708 
	C595.498047,233.354172 592.962891,230.956543 590.086853,228.075333 
	C585.129028,233.152344 579.682739,235.552444 573.359558,230.011490 
	C569.089355,234.799011 563.606995,232.791275 558.507874,232.718079 
	C556.488037,232.689102 555.937378,230.847000 555.924194,229.045395 
	C555.885193,223.712875 555.856323,218.379959 555.879883,213.047455 
	C555.888428,211.105591 556.296143,209.256363 558.725220,209.095886 
	C561.342346,208.922958 561.642822,210.968460 561.734863,212.803970 
	C561.909973,216.295654 561.907227,219.798584 561.895203,223.296555 
	C561.885864,226.011185 562.651611,227.913620 565.850769,227.687912 
	C568.487610,227.501862 571.848999,228.708344 571.931519,224.037872 
	C571.976135,221.510834 572.864746,219.137375 574.852417,216.901733 
M618.952454,220.564835 
	C615.376892,219.752350 615.103699,222.118546 615.200073,224.613312 
	C615.271973,226.473541 616.270996,228.076797 618.288940,227.507568 
	C620.934937,226.761169 620.882874,224.447983 620.331421,222.220261 
	C620.220337,221.771637 619.807068,221.397842 618.952454,220.564835 
M578.406067,225.797028 
	C579.258301,227.671234 580.588257,228.255798 582.254578,226.902756 
	C583.647339,225.771790 583.911743,224.138168 583.380066,222.453079 
	C582.953308,221.100021 582.047546,220.015930 580.528320,220.370148 
	C577.990540,220.961899 578.113647,223.063431 578.406067,225.797028 
M601.630859,224.305099 
	C601.601501,222.371918 601.349854,220.483063 598.877197,220.409012 
	C597.279053,220.361145 596.624695,221.690079 596.363464,223.042206 
	C596.037537,224.729050 596.027161,226.607925 597.868408,227.350296 
	C599.836975,228.144012 600.902771,226.739426 601.630859,224.305099 
z"/>
<path fill="#000000" opacity="1.000000" stroke="none" 
	d="
M410.263885,217.226456 
	C407.818848,216.994080 405.755463,216.994141 403.973083,215.267349 
	C402.374146,213.718277 400.482208,213.828949 398.739014,215.486450 
	C400.064026,218.402725 402.766205,217.973267 404.834015,218.632858 
	C408.511139,219.805832 411.314026,221.781036 411.014160,225.948059 
	C410.728973,229.911606 407.972717,232.165878 404.249786,232.971313 
	C400.536530,233.774643 396.867645,233.474106 394.021851,230.582489 
	C392.799774,229.340714 391.114410,227.615143 392.617004,225.839737 
	C394.048676,224.148071 395.932007,225.081436 397.478607,226.336243 
	C399.760162,228.187286 402.049103,228.844131 404.359192,226.386505 
	C403.823364,223.867081 401.843079,223.750519 400.130524,223.303162 
	C396.500061,222.354828 392.874390,221.403870 392.502960,216.721497 
	C392.255768,213.604675 393.356171,211.137451 396.311401,209.802536 
	C400.409821,207.951248 404.343292,207.988632 408.015381,210.960007 
	C409.277405,211.981247 409.822327,213.815598 411.643738,214.183426 
	C416.074188,209.272324 420.280609,210.199722 422.409882,216.485626 
	C422.966217,218.128006 421.864685,218.813782 420.966461,219.825668 
	C418.721191,222.355209 418.467804,224.981628 421.249451,227.955170 
	C423.126740,225.485306 426.099884,224.053055 424.254761,220.316330 
	C423.210724,218.201920 424.732483,216.821777 426.397430,215.895859 
	C429.509460,214.165176 432.801544,214.090897 435.966431,215.669281 
	C438.938629,217.151596 439.378418,219.943451 439.148041,222.933578 
	C439.135284,223.099411 439.126617,223.265793 439.122711,223.432068 
	C438.897583,233.008759 434.729065,235.804321 425.640381,232.283386 
	C424.139008,231.701752 423.213104,231.554688 421.623444,232.324402 
	C417.408691,234.365143 414.068481,232.278946 413.710693,227.482437 
	C413.437531,223.820114 413.708405,220.101242 410.263885,217.226456 
z"/>
<path fill="#000000" opacity="1.000000" stroke="none" 
	d="
M629.615967,351.715332 
	C631.461609,352.214844 632.752197,353.458221 634.594849,352.229370 
	C636.357727,351.053711 638.843445,350.729309 639.934021,352.744019 
	C641.128235,354.949890 641.695129,357.850281 640.554016,360.264679 
	C639.438904,362.623779 637.171631,361.979797 634.875000,361.650970 
	C631.302673,361.139496 627.522888,360.849548 624.014648,361.482758 
	C620.852600,362.053436 620.219727,360.591827 619.360718,357.859772 
	C617.837952,364.334137 613.161194,361.507111 609.645081,361.440033 
	C605.772400,361.366150 602.125977,361.223114 599.835083,365.092285 
	C596.203125,362.772644 593.644104,360.431580 594.296631,355.881378 
	C591.157654,356.884613 593.279846,360.296692 590.890869,361.256714 
	C587.982849,360.865417 589.654297,357.618317 587.831482,355.883057 
	C587.419373,357.852875 587.100403,359.377686 586.813171,360.750641 
	C582.391602,362.368164 578.017334,361.087097 573.819946,361.922089 
	C572.741516,362.136597 571.869568,361.709625 571.158569,360.920624 
	C569.259094,358.812775 569.660034,352.007507 571.826538,349.793518 
	C573.718323,349.982422 574.032043,352.194031 575.612183,352.786865 
	C581.154419,351.555298 586.821289,352.196075 592.411987,351.679718 
	C597.845276,351.177887 603.890076,353.879608 608.426025,348.601776 
	C611.215881,348.787811 609.895508,351.513184 611.204712,353.073853 
	C613.680664,349.261566 618.925842,354.531921 620.665649,349.754303 
	C623.276794,349.795105 623.485168,352.087738 625.027100,352.782227 
	C626.425659,352.396729 627.689941,351.393036 629.615967,351.715332 
z"/>
<path fill="#000000" opacity="1.000000" stroke="none" 
	d="
M460.816650,370.887756 
	C462.005371,371.728973 462.822510,373.967285 464.109680,372.101593 
	C465.729736,369.753387 468.161530,370.306000 469.968018,370.379272 
	C474.945068,370.581207 480.149323,369.538361 484.795319,370.624603 
	C489.689697,371.768860 493.003357,370.679504 496.752991,366.667877 
	C498.542297,371.426392 498.223083,375.381500 497.461884,379.357483 
	C497.383820,379.765259 496.910400,380.187775 496.514374,380.430084 
	C493.191925,382.462830 490.098328,378.572357 486.462524,380.285706 
	C482.215302,382.287201 480.793213,378.509644 479.083618,374.639801 
	C478.536194,376.847992 478.165131,378.344788 477.762787,379.967773 
	C473.790070,380.267395 469.767151,382.408783 466.555817,378.051544 
	C464.729950,378.997955 463.787445,381.595306 460.718475,379.510742 
	C458.903748,378.278107 455.502441,380.369415 452.580688,380.452637 
	C448.921173,380.556854 445.180908,379.584412 441.448486,380.720245 
	C438.613556,381.583008 435.537018,381.168152 434.580383,377.644592 
	C433.714386,374.454865 434.527802,371.805237 438.092102,370.452087 
	C439.552002,369.897919 440.734741,368.613495 442.032104,367.669617 
	C444.172577,367.692474 443.593994,369.999420 444.813354,370.892029 
	C447.932068,370.131104 451.389404,371.676788 454.289551,368.090515 
	C455.806854,366.214264 459.244019,367.767731 460.816650,370.887756 
z"/>
<path fill="#000000" opacity="1.000000" stroke="none" 
	d="
M453.970154,309.959167 
	C455.059204,319.085083 452.610352,323.498413 446.266388,323.842865 
	C443.221466,324.008179 441.640625,323.155365 437.422607,319.071808 
	C434.879333,323.100372 425.928833,325.149933 420.923950,322.849792 
	C416.056519,320.612823 413.518066,313.887329 415.229431,307.762726 
	C416.801483,302.136749 421.350800,299.108032 427.346588,299.695770 
	C432.811798,300.231537 436.160828,304.378845 435.270569,311.178284 
	C441.444794,306.134125 447.426819,301.955872 453.746765,309.802734 
	C453.999023,309.994537 453.970154,309.959167 453.970154,309.959167 
M421.300659,315.069305 
	C424.636658,319.419067 425.625671,319.567566 429.357910,316.006714 
	C428.003143,314.812653 425.233704,314.773102 425.595490,312.126251 
	C426.013702,309.066681 429.257812,310.664307 430.720917,309.092743 
	C430.131683,306.849884 428.946381,305.263641 426.435333,305.099792 
	C424.272675,304.958649 422.560699,305.755005 421.529968,307.728699 
	C420.414215,309.865204 420.012421,312.072845 421.300659,315.069305 
z"/>
<path fill="#000000" opacity="1.000000" stroke="none" 
	d="
M559.382141,351.998260 
	C562.088257,351.139099 563.960754,351.792694 565.130188,354.058807 
	C566.313782,356.352234 565.945312,358.721252 564.558533,360.653259 
	C563.179932,362.573761 560.880127,361.150177 559.165405,361.470215 
	C554.694946,362.304535 550.272156,360.500946 545.894714,361.796936 
	C542.912109,362.679993 540.043945,361.157104 537.360901,361.403320 
	C535.549500,360.005371 536.479553,357.757111 535.363403,356.230530 
	C533.416016,357.696991 535.621643,360.680908 532.775696,361.450409 
	C530.189392,360.990997 531.346436,358.520508 530.522644,357.013489 
	C529.162720,358.503174 530.394714,361.975952 526.741455,361.673889 
	C522.771851,361.345673 517.719299,363.670837 516.498596,356.692719 
	C515.971863,365.355621 506.334869,358.636261 504.661926,366.449768 
	C502.135376,360.911163 502.799286,356.970459 503.027710,353.108307 
	C503.098267,351.914886 504.221649,351.456757 505.260529,351.680298 
	C511.624176,353.049408 518.094604,349.990753 524.502991,352.343140 
	C526.729431,353.160461 529.169373,350.807648 531.673645,351.543335 
	C536.935242,353.088959 542.374084,351.293793 547.773621,352.644501 
	C550.261108,353.266754 553.412903,351.299988 554.726074,348.637299 
	C557.766724,348.274902 556.300659,352.556671 559.382141,351.998260 
z"/>
<path fill="#000000" opacity="1.000000" stroke="none" 
	d="
M604.455505,380.804138 
	C601.230286,378.051666 598.535522,381.452698 595.641296,380.950409 
	C592.480164,380.401825 589.316101,379.245636 585.516907,380.612122 
	C584.593750,375.791809 583.970032,371.526001 586.227112,367.358917 
	C588.861145,367.938965 587.982849,370.098755 588.661194,370.773254 
	C598.714783,370.982849 608.378845,371.191864 619.256409,370.465851 
	C619.632141,370.287292 618.623352,367.599121 620.984741,367.294708 
	C624.537109,371.335388 629.143372,371.611145 634.210022,370.894440 
	C636.398865,370.584808 639.349609,369.169861 640.782776,372.357941 
	C641.886719,374.813904 639.754456,382.473511 637.950073,383.382111 
	C636.681641,384.020813 634.663513,384.319244 634.232605,383.357208 
	C632.844482,380.258392 627.306030,380.188232 628.482178,375.346497 
	C628.554077,375.050751 628.001953,374.603424 627.619324,374.052673 
	C625.179199,375.465973 626.872742,378.263397 625.015808,380.301270 
	C620.446167,379.807465 615.343262,379.413300 611.423645,384.357330 
	C609.880981,380.980896 607.545349,380.432953 604.455505,380.804138 
z"/>
<path fill="#000000" opacity="1.000000" stroke="none" 
	d="
M497.762970,246.977905 
	C505.201782,244.892914 510.758789,248.866959 516.622314,251.509323 
	C519.272888,252.703796 525.976379,250.942963 527.713074,248.400436 
	C529.093689,246.379150 538.827087,243.480713 540.688049,244.362457 
	C543.337891,245.617950 543.953125,247.214523 543.480713,250.286652 
	C542.851257,254.380447 539.978333,252.894531 537.879028,253.494461 
	C534.702332,254.402298 534.231384,252.314148 533.911011,249.983612 
	C533.878296,249.745468 533.448486,249.561920 532.589966,248.831573 
	C532.421021,252.113571 532.210938,254.942795 532.142761,257.775391 
	C531.994507,263.940460 527.384094,266.454590 521.948730,263.251343 
	C521.108276,262.755981 520.411804,262.016266 519.392456,261.179047 
	C517.477905,265.179749 513.889771,264.479858 510.761719,264.075897 
	C508.271423,263.754333 506.190125,261.205292 503.286957,263.768616 
	C502.255737,264.679108 501.067810,262.801056 500.952271,261.381256 
	C500.803955,259.558472 500.789307,257.719238 500.819611,255.888824 
	C500.860138,253.441635 500.705109,251.286301 497.771576,250.356964 
	C495.830048,249.741898 495.631989,248.419952 497.762970,246.977905 
M526.732178,259.191620 
	C527.897400,257.751190 527.877502,256.374786 526.137268,255.549042 
	C525.083923,255.049255 524.161621,255.805923 523.890259,256.872314 
	C523.414246,258.742828 524.131470,259.759003 526.732178,259.191620 
z"/>
<path fill="#000000" opacity="1.000000" stroke="none" 
	d="
M420.702087,394.254578 
	C419.720978,396.089783 420.568420,399.160583 418.071045,399.307465 
	C414.831604,399.497955 411.471893,400.240753 408.241028,399.169708 
	C407.757294,399.009338 407.188202,398.164673 407.188599,397.636993 
	C407.191406,393.920776 406.237976,390.096222 408.113922,386.234192 
	C415.501404,392.099548 423.698822,388.157379 431.443481,388.809937 
	C433.546478,388.987122 435.627472,388.369965 437.671051,389.755066 
	C439.946747,391.297577 441.971008,389.395477 443.448883,388.143860 
	C446.463226,385.591156 449.063507,384.652100 451.822479,388.232452 
	C452.532135,389.153412 453.519379,388.982117 454.501801,389.131653 
	C458.152039,389.687164 460.224701,395.227417 457.913361,398.123199 
	C456.748138,399.583099 455.163177,399.914551 453.425507,399.465179 
	C451.818420,399.049561 450.853638,398.057037 450.835175,396.280670 
	C450.821930,395.005432 451.168213,393.565216 449.201202,392.611237 
	C447.615112,395.351135 448.581238,401.376434 442.982239,399.464630 
	C440.130280,398.490814 434.969849,402.104248 434.443848,395.356964 
	C433.443726,401.755066 428.833038,399.873993 425.289093,399.880341 
	C421.593109,399.886932 421.039917,397.081543 420.702087,394.254578 
z"/>
<path fill="#000000" opacity="1.000000" stroke="none" 
	d="
M584.411560,300.752594 
	C587.568787,298.402802 589.421143,299.339386 589.573792,302.768219 
	C589.824524,308.403717 589.732239,314.055115 589.749634,319.699951 
	C589.754456,321.259796 589.460571,322.652344 587.629761,323.201752 
	C580.839233,325.239624 576.026184,323.441132 572.105530,317.331879 
	C569.710510,323.117798 564.463257,325.354584 559.537415,322.689270 
	C555.010193,320.239685 553.531006,313.778564 556.438477,309.153229 
	C559.507996,304.270172 565.083923,304.565186 572.490479,310.173035 
	C574.780090,307.641083 577.178650,305.253326 581.142395,305.451996 
	C583.968872,305.593628 583.638611,302.865082 584.411560,300.752594 
M581.354614,310.667999 
	C577.492981,311.648010 577.842041,314.433990 578.799377,317.180023 
	C579.288147,318.582001 580.799866,318.992950 582.045227,318.016724 
	C584.408875,316.163727 584.149414,313.863739 582.726501,311.536774 
	C582.566650,311.275421 582.240540,311.115784 581.354614,310.667999 
z"/>
<path fill="#000000" opacity="1.000000" stroke="none" 
	d="
M529.605347,227.805450 
	C529.029968,228.452133 528.534912,229.151215 528.387085,229.917267 
	C528.007385,231.885803 526.900208,232.904953 524.924133,232.670181 
	C522.959473,232.436783 522.787842,230.849762 522.757996,229.289368 
	C522.716492,227.124207 522.727356,224.958054 522.683594,222.792969 
	C522.654602,221.355484 522.257141,219.991440 520.582825,219.910675 
	C518.981689,219.833435 518.406677,221.113159 517.983948,222.478592 
	C517.320435,224.622040 517.669128,226.759140 517.764893,228.920090 
	C517.847656,230.790497 517.697449,232.865387 515.140747,232.909225 
	C512.845520,232.948578 511.985870,231.280273 511.957397,229.230469 
	C511.883392,223.900925 511.866943,218.570251 511.875214,213.240082 
	C511.878357,211.225342 511.773438,209.037811 514.651794,208.816315 
	C517.785339,208.575180 517.407654,210.958527 517.661072,212.883759 
	C517.724548,213.366135 517.943176,213.828094 518.084656,214.280594 
	C525.532776,214.911224 525.532776,214.911224 529.354492,220.029968 
	C531.278503,218.297546 532.535461,215.645187 535.257385,215.037979 
	C539.278076,214.141083 542.966309,214.536804 545.222595,218.584137 
	C547.227478,222.180420 546.461731,229.002167 543.915161,231.235031 
	C541.090271,233.711960 535.956604,233.797394 532.777588,231.246033 
	C531.636475,230.330185 530.812561,229.019073 529.605347,227.805450 
z"/>
<path fill="#000000" opacity="1.000000" stroke="none" 
	d="
M462.700806,397.074951 
	C461.834351,390.627716 463.869568,389.736023 469.624481,389.650360 
	C476.611389,389.546295 483.923828,390.496002 491.171295,387.593292 
	C493.009216,391.162567 496.544617,389.520935 499.615936,389.324341 
	C503.766052,389.058746 508.002380,390.271973 512.079590,387.924713 
	C514.520020,386.519806 516.183411,389.062958 515.852722,390.886749 
	C515.348145,393.669495 515.144104,396.313141 516.354736,399.051361 
	C513.245972,399.952118 510.762848,396.329865 509.031830,399.567139 
	C506.347137,398.034973 508.155762,395.731445 507.122711,394.265533 
	C506.693359,394.339294 506.133789,394.381226 506.131500,394.443542 
	C505.867828,401.636688 500.356354,399.530731 496.450073,399.663361 
	C492.926025,399.782959 489.406982,398.732300 486.160706,399.111084 
	C484.370514,397.680634 485.400482,395.609833 484.169373,394.228271 
	C481.725067,395.090057 483.844604,399.715363 480.039215,399.345001 
	C474.299988,398.786407 468.236176,401.119476 462.700806,397.074951 
z"/>
<path fill="#000000" opacity="1.000000" stroke="none" 
	d="
M353.081421,380.434570 
	C347.825562,381.575592 346.806396,378.336670 346.366699,374.523651 
	C344.707581,374.714935 345.283569,375.989868 345.140228,376.787598 
	C344.786285,378.757141 344.897583,380.827423 341.788239,380.549194 
	C338.516083,380.256317 334.588013,382.080505 332.960480,377.387390 
	C331.843048,374.165253 334.356049,370.004150 337.420288,370.722778 
	C343.199432,372.078186 349.169952,368.697235 354.980652,372.003754 
	C356.185760,372.689453 360.291565,371.477234 361.873291,370.634888 
	C364.734100,369.111420 368.627747,371.132538 370.475372,367.763763 
	C372.301575,369.538696 374.109955,371.296265 376.166138,373.294739 
	C378.637787,369.877014 382.186646,370.781372 385.220764,370.530365 
	C387.571594,370.335876 388.666351,372.803650 389.263306,374.966217 
	C389.853973,377.106079 389.280457,378.920715 387.396271,380.196411 
	C385.226379,381.665527 383.302246,381.011292 381.550415,379.395081 
	C380.951996,378.843018 380.430786,378.207275 379.866180,377.601074 
	C376.687500,381.236816 376.687500,381.236816 373.558380,378.436920 
	C370.618317,381.415680 367.571136,382.408661 364.264282,378.444946 
	C362.439087,380.901184 360.047760,381.791718 357.152069,380.445496 
	C355.896149,379.861603 354.701477,379.397064 353.081421,380.434570 
z"/>
<path fill="#000000" opacity="1.000000" stroke="none" 
	d="
M500.016510,319.064026 
	C500.954834,318.151245 501.893158,317.238434 503.006409,316.155457 
	C500.385254,312.639130 499.489838,309.060516 504.080719,306.599152 
	C507.168823,304.943451 510.328156,305.605316 513.626587,306.964325 
	C518.172852,308.837494 512.792175,313.362000 516.458374,315.439362 
	C517.929138,312.460419 515.346924,308.186584 518.839050,306.338776 
	C521.619019,304.867737 525.058838,305.594604 528.161499,305.781952 
	C532.170654,306.024109 535.261169,310.661194 535.011963,315.362732 
	C534.713806,320.987671 531.740845,323.334259 524.333130,323.703766 
	C522.491577,324.975586 524.189758,329.723969 520.397827,328.807953 
	C515.070068,327.520935 519.128601,322.367554 516.874817,319.168610 
	C514.744507,321.393066 512.436218,323.571625 508.920013,323.738007 
	C505.188324,323.914581 502.539825,322.341064 500.206909,319.261292 
	C499.997742,319.018982 500.016479,319.063995 500.016510,319.064026 
M528.518799,312.352753 
	C526.356140,309.328003 524.670105,310.376953 523.563232,313.128143 
	C522.922180,314.721436 523.300476,316.436707 524.676025,317.697540 
	C525.298584,318.268097 526.082581,318.742645 526.930115,318.292236 
	C529.133118,317.121521 528.849854,315.047943 528.518799,312.352753 
z"/>
<path fill="#000000" opacity="1.000000" stroke="none" 
	d="
M455.597107,359.370667 
	C454.224243,361.973206 452.021515,363.150665 450.099396,361.690552 
	C447.634918,359.818512 445.677460,360.434906 443.761230,361.624023 
	C441.896393,360.783325 441.688904,359.112335 440.610199,357.700439 
	C438.909119,362.990356 434.520721,361.971832 430.827698,361.664551 
	C426.303497,361.288086 421.770355,360.776428 417.363464,361.790588 
	C413.669250,362.640717 412.213684,360.554047 410.657990,357.939392 
	C409.035522,358.542023 409.921600,361.211761 407.402557,361.418854 
	C404.923615,359.236786 405.647675,356.183167 406.386902,353.485535 
	C407.077240,350.966492 409.602692,351.742035 411.517975,351.737915 
	C419.584717,351.720428 427.651550,351.730530 435.722778,351.990997 
	C437.521515,351.632324 435.754578,349.248901 437.676758,348.550781 
	C437.836761,348.550781 438.399506,348.444824 438.453613,348.566040 
	C440.788544,353.793976 445.072968,352.594666 449.316589,352.068298 
	C455.248627,351.332489 456.427979,352.717773 455.597107,359.370667 
z"/>
<path fill="#000000" opacity="1.000000" stroke="none" 
	d="
M606.949707,398.976868 
	C604.953857,399.205719 603.166077,399.205719 601.509216,399.205719 
	C599.734497,397.470367 601.261414,395.152740 600.043091,393.256500 
	C597.320801,394.384644 599.992249,398.394714 596.653931,399.254181 
	C594.321533,398.317169 595.375244,395.904602 594.738647,393.864563 
	C593.290588,395.671997 594.898376,399.464447 591.877319,399.238312 
	C589.602417,399.068024 587.082153,400.809143 585.664978,399.755005 
	C581.256409,396.475525 576.878540,401.355988 572.516602,399.269989 
	C571.629700,398.845764 569.643066,399.149353 568.174377,399.278107 
	C565.596741,399.504181 562.092529,400.987183 560.825867,398.375275 
	C559.060791,394.735565 559.344360,390.452850 561.388000,386.023712 
	C563.598755,388.000671 565.372681,389.819458 568.042847,389.770508 
	C569.682434,389.358856 569.255066,386.994720 571.133240,386.635651 
	C574.882812,390.170532 579.461853,390.089172 584.356567,389.660187 
	C589.683167,389.193359 595.073914,389.431793 600.436523,389.441071 
	C601.035034,389.442108 602.068787,389.850189 602.162170,390.244354 
	C602.959900,393.613617 606.302979,395.452606 606.949707,398.976868 
z"/>
<path fill="#000000" opacity="1.000000" stroke="none" 
	d="
M416.833252,380.776459 
	C412.864288,379.243591 409.102753,380.595734 405.544800,380.767456 
	C402.045135,380.936310 398.675873,379.893402 395.238312,380.430542 
	C394.116486,380.605835 393.174255,379.968750 393.033142,378.877869 
	C392.534454,375.021881 392.729980,371.226410 393.946350,367.632080 
	C397.181671,367.911407 395.316010,370.688324 396.822388,371.520416 
	C399.896729,371.130890 401.944305,368.819702 404.138153,367.361908 
	C406.176819,367.841187 405.625519,369.701996 406.810791,370.870728 
	C409.391632,369.778839 413.352051,372.197876 414.219666,371.583405 
	C418.064545,368.860321 422.010712,372.753510 425.621399,370.537445 
	C427.054291,369.658020 429.315369,370.381165 429.872925,372.061249 
	C430.620361,374.313446 431.534302,376.859772 430.235596,379.235260 
	C429.336395,380.880066 427.519348,381.516968 425.921021,380.718597 
	C422.880310,379.199738 420.091888,381.884369 416.833252,380.776459 
z"/>
<path fill="#000000" opacity="1.000000" stroke="none" 
	d="
M468.536133,351.722198 
	C472.827698,350.980347 476.668762,352.431885 480.658386,352.022339 
	C483.695557,351.710541 486.302002,351.513763 487.631165,348.392365 
	C498.380981,357.057343 499.710907,359.435333 496.572510,364.078308 
	C492.809692,362.882874 491.727570,359.743011 491.341370,356.003265 
	C489.245880,357.491913 490.220520,359.811218 488.548187,361.412231 
	C482.328430,360.596100 475.277496,364.572357 468.896027,358.807281 
	C467.468719,363.029236 463.982727,360.682892 461.076111,361.422577 
	C460.034607,358.019806 459.071136,354.843384 459.830383,351.568237 
	C460.190033,350.016937 461.228271,348.436249 463.097656,348.110413 
	C465.255646,347.734192 465.089325,349.844391 465.955322,350.894043 
	C466.387360,351.417725 467.409912,351.454193 468.536133,351.722198 
z"/>
<path fill="#000000" opacity="1.000000" stroke="none" 
	d="
M345.929688,443.310791 
	C339.349548,443.484894 336.064911,438.624420 339.097168,433.273834 
	C340.869690,430.146149 343.789459,431.587067 347.756531,432.967133 
	C342.240997,434.146851 347.228088,438.903900 342.727692,440.088226 
	C344.912354,440.892120 346.447418,440.646210 346.458374,438.980499 
	C346.492340,433.831177 349.833099,434.162323 353.315765,434.422577 
	C356.417999,434.654388 359.480713,436.081451 362.675781,434.360809 
	C363.358856,433.992950 364.780762,434.997009 366.044250,435.431641 
	C367.405457,434.702698 365.816406,432.989655 367.195251,431.723114 
	C369.551086,431.735992 372.553772,430.682983 372.697815,435.303345 
	C372.939209,443.044067 372.988861,443.072266 367.544403,443.090454 
	C365.226868,443.098206 362.910004,443.247345 360.592499,443.322937 
	C357.791443,443.414337 355.272125,443.075623 355.344971,439.130951 
	C353.751038,440.369812 354.555023,442.617462 352.492371,442.864807 
	C350.555847,442.352081 351.201263,440.463074 350.421692,438.694550 
	C349.476257,440.848022 349.404449,443.642395 345.929688,443.310791 
z"/>
<path fill="#000000" opacity="1.000000" stroke="none" 
	d="
M524.338745,380.603027 
	C523.322693,382.525482 522.471863,384.581940 520.179504,383.489136 
	C518.166870,382.529633 519.777893,380.890717 520.088989,379.577148 
	C520.844543,376.386780 517.759949,373.788635 518.439514,370.533112 
	C525.090820,371.524139 531.458984,369.565552 538.556213,371.329010 
	C539.977173,372.333649 537.675110,374.977264 539.407288,377.003479 
	C541.938965,375.624451 539.460449,371.319427 542.908752,370.730682 
	C545.262207,370.328888 547.734741,369.066864 549.985596,371.558105 
	C549.061951,373.934448 547.755005,376.186401 546.865662,378.604675 
	C545.725403,381.705231 541.847778,381.503326 539.048462,380.888824 
	C536.618530,380.355408 534.561462,379.244934 532.066711,380.861023 
	C530.735657,381.723267 529.133789,380.801849 527.977905,379.790436 
	C526.542603,378.534546 525.398254,378.382690 524.338745,380.603027 
z"/>
<path fill="#000000" opacity="1.000000" stroke="none" 
	d="
M371.984375,354.936615 
	C371.147278,358.834839 368.214386,357.796204 365.653992,357.576202 
	C364.296417,358.755737 366.279907,360.620941 364.465759,361.834564 
	C362.165863,362.589752 361.890839,360.161499 360.520874,358.637878 
	C358.966675,361.957886 355.201416,361.971924 353.059204,364.356537 
	C350.816406,362.904053 352.107819,360.778625 351.256744,358.804230 
	C349.029572,360.498047 347.010101,363.080383 343.720856,361.603851 
	C341.752655,360.720306 340.578156,359.126770 340.067535,357.126160 
	C339.302490,354.128601 340.029572,351.429993 342.565063,349.574341 
	C344.862122,347.893158 347.096222,348.524567 349.469666,349.969879 
	C353.783569,352.596771 358.270569,353.141327 362.794983,349.656097 
	C365.239655,351.934357 367.269623,355.087708 371.634094,354.928955 
	C372.000305,354.979248 371.984375,354.936615 371.984375,354.936615 
M344.381592,352.470459 
	C343.285645,353.451263 343.198090,354.733429 343.339630,356.065063 
	C343.470825,357.299469 343.982880,358.349823 345.353363,358.426941 
	C346.976990,358.518341 347.708344,357.385590 347.799438,355.965210 
	C347.928040,353.960663 348.013916,351.824036 344.381592,352.470459 
z"/>
<path fill="#000000" opacity="1.000000" stroke="none" 
	d="
M552.428040,373.620148 
	C552.375366,369.996643 554.994385,369.496338 556.891052,370.204163 
	C563.519653,372.677734 570.131104,369.454468 577.099548,371.012268 
	C578.486145,372.401367 576.184753,374.001923 576.473877,375.725098 
	C576.899963,378.264923 579.748596,376.913666 580.805359,378.492523 
	C581.275513,380.227356 580.870361,381.692383 579.133667,383.120728 
	C573.102356,376.727356 565.104980,383.102966 558.065002,379.001160 
	C557.950378,378.280701 557.700073,376.707092 557.397888,374.807068 
	C554.390442,375.894287 557.065430,379.731567 553.892456,380.500702 
	C550.994751,378.999329 553.117004,376.108124 552.428040,373.620148 
z"/>
<path fill="#000000" opacity="1.000000" stroke="none" 
	d="
M651.310852,377.807068 
	C649.508850,379.814026 649.942749,383.826538 644.544983,383.037628 
	C648.788757,378.722778 644.199524,375.020996 644.353149,371.069916 
	C647.071655,370.353638 647.011108,372.704956 648.297058,373.426117 
	C652.515198,367.665863 658.300842,372.543976 663.196228,371.195007 
	C665.214966,372.619995 663.277710,375.592194 665.958008,377.265320 
	C666.484924,370.914978 670.038818,369.690491 675.692688,371.262421 
	C674.446228,373.864868 673.940125,376.698334 672.818970,378.640869 
	C670.863342,382.029144 666.751526,380.554169 663.454102,380.140137 
	C662.447388,380.013763 661.675781,378.062378 660.471252,379.145111 
	C656.756348,382.484528 654.174622,380.051758 651.310852,377.807068 
z"/>
<path fill="#000000" opacity="1.000000" stroke="none" 
	d="
M659.593140,360.670715 
	C659.116577,358.980591 658.817566,357.551086 658.440430,355.748199 
	C655.652039,356.966522 657.194092,359.919556 655.416321,361.482117 
	C654.208130,361.628235 652.739258,361.820282 651.267029,361.980621 
	C649.040100,362.223083 646.722656,362.296661 645.609070,359.918304 
	C644.547852,357.651947 645.503235,355.219849 646.396362,353.218994 
	C647.367188,351.044098 649.839600,352.281403 651.640259,351.932831 
	C656.282288,351.034241 660.752502,353.380676 665.391235,351.986206 
	C667.441528,351.369812 668.569031,349.941254 670.156555,347.989563 
	C672.268494,352.683838 671.054260,356.731049 671.128601,360.515717 
	C667.251221,363.772003 663.451233,359.389709 659.593140,360.670715 
z"/>
<path fill="#000000" opacity="1.000000" stroke="none" 
	d="
M444.048645,238.563629 
	C441.534515,237.755371 440.988922,235.850555 442.521484,234.727524 
	C445.914215,232.241394 444.535858,229.543289 443.592010,226.760223 
	C442.686432,224.089935 441.593201,221.483368 440.683136,218.814453 
	C440.209839,217.426453 439.544373,215.775757 441.605316,215.055267 
	C443.378235,214.435516 444.832367,215.020462 445.826294,216.704620 
	C446.702087,218.188583 446.560425,220.374481 448.700592,221.030396 
	C450.836731,220.239319 450.574097,218.019287 451.485596,216.530945 
	C452.531647,214.822983 454.036316,214.399307 455.749084,215.156738 
	C457.339447,215.860062 457.042847,217.263992 456.563873,218.583694 
	C454.695312,223.731964 452.931213,228.922134 450.902771,234.006790 
	C449.790588,236.794632 447.662781,238.601547 444.048645,238.563629 
z"/>
<path fill="#000000" opacity="1.000000" stroke="none" 
	d="
M541.559570,398.196838 
	C539.645447,396.300415 539.052307,399.660309 536.934753,398.482513 
	C535.259216,396.473785 535.714478,393.323456 535.544922,390.525513 
	C535.432373,388.667542 536.773499,386.674591 538.937439,386.071686 
	C541.023560,385.490448 540.998535,387.760315 542.028320,388.622437 
	C543.962036,390.241364 543.908325,392.687378 544.960388,395.660828 
	C547.097900,390.139526 549.195007,385.473877 555.852051,386.379059 
	C556.989197,390.006775 556.211426,393.650116 556.352905,397.225677 
	C556.405640,398.558411 555.478516,399.595825 554.238159,399.582367 
	C550.055176,399.536987 545.714600,400.880951 541.559570,398.196838 
z"/>
<path fill="#000000" opacity="1.000000" stroke="none" 
	d="
M487.126587,232.759399 
	C483.321320,230.652573 485.220520,227.292618 484.726257,224.537476 
	C484.436920,222.924652 484.792419,220.747086 482.606049,220.599884 
	C479.962860,220.421921 480.193024,222.831802 480.016205,224.584915 
	C479.832642,226.405136 479.882050,228.248764 479.700775,230.069336 
	C479.534882,231.735062 478.734039,232.940948 476.829041,232.820328 
	C475.339355,232.725967 474.139282,231.948364 474.097107,230.421204 
	C473.973206,225.933731 474.020050,221.440903 474.058777,216.950653 
	C474.062622,216.505768 474.381073,215.982132 474.703735,215.634506 
	C477.052246,213.104324 488.102386,214.796829 489.409790,218.067139 
	C491.129181,222.368103 490.414429,226.915680 489.906708,231.364227 
	C489.780975,232.466125 488.577515,232.717590 487.126587,232.759399 
z"/>
<path fill="#000000" opacity="1.000000" stroke="none" 
	d="
M499.984558,318.998505 
	C499.696838,321.168640 499.546234,323.572266 496.449982,323.367798 
	C493.214050,323.154144 493.781372,320.573547 493.705902,318.480072 
	C493.640045,316.653595 493.681915,314.822418 493.585236,312.998138 
	C493.517303,311.716217 492.886047,310.653229 491.503296,310.644867 
	C490.176178,310.636841 489.358215,311.609314 489.232697,312.880524 
	C488.988129,315.357117 488.948944,317.853668 488.715912,320.331726 
	C488.569061,321.893585 488.091309,323.312439 486.090179,323.330200 
	C483.963776,323.349091 483.131927,322.069763 483.030945,320.180328 
	C482.933411,318.355591 482.942963,316.524353 482.932556,314.695831 
	C482.880554,305.539215 484.583862,303.987061 493.703888,305.652496 
	C497.470978,306.340424 499.939117,308.773743 499.727051,312.969238 
	C499.635376,314.782837 499.062836,316.577820 499.870728,318.725830 
	C500.016479,319.063995 499.997742,319.018982 499.984558,318.998505 
z"/>
<path fill="#000000" opacity="1.000000" stroke="none" 
	d="
M499.854126,214.993835 
	C501.519196,212.678116 502.076477,209.194321 505.817566,210.803436 
	C508.309937,211.875458 509.610870,217.675232 508.233551,220.152084 
	C506.862823,222.617126 506.387299,225.312637 508.461273,227.505249 
	C509.939636,229.068176 511.770721,230.386307 509.551361,232.317871 
	C507.457611,234.140121 505.176208,233.149567 503.206848,231.629761 
	C502.827576,231.337097 502.406189,230.888565 502.325043,230.452271 
	C501.386536,225.403641 500.509796,220.343536 499.854126,214.993835 
z"/>
<path fill="#000000" opacity="1.000000" stroke="none" 
	d="
M454.014526,310.011230 
	C453.252197,306.590759 456.580292,304.888611 457.443848,302.113617 
	C457.705078,301.274078 459.146576,301.210938 460.154785,301.452820 
	C463.069946,302.152344 465.107269,307.997314 463.422119,310.604523 
	C461.742279,313.203552 461.633209,315.941589 463.524414,318.411041 
	C464.703583,319.950836 466.200073,321.458160 464.150177,322.980072 
	C462.160187,324.457489 459.969177,323.564758 458.328979,321.932648 
	C456.668793,320.280609 456.794281,318.027435 456.670410,315.864716 
	C456.553497,313.822693 457.323029,311.398010 454.314636,310.101654 
	C453.970154,309.959167 453.999023,309.994537 454.014526,310.011230 
z"/>
<path fill="#000000" opacity="1.000000" stroke="none" 
	d="
M491.496887,263.455261 
	C490.740570,263.821838 489.984100,264.151794 489.818756,263.963287 
	C486.539032,260.223969 483.515228,258.757965 479.772522,263.728271 
	C478.821472,264.991302 476.733063,263.390839 477.330841,261.563080 
	C478.819763,257.010468 480.440887,252.464798 482.501099,248.151443 
	C483.450256,246.164337 485.956970,246.193756 486.843597,248.307510 
	C488.860992,253.117111 491.725403,257.700134 491.496887,263.455261 
z"/>
<path fill="#000000" opacity="1.000000" stroke="none" 
	d="
M515.989624,169.611877 
	C515.709473,170.305420 515.455139,170.557114 514.994934,170.984848 
	C511.332733,170.959610 507.967438,169.922852 504.418213,170.461044 
	C497.584473,171.497253 499.545959,164.962234 496.983704,162.174271 
	C499.143799,160.192291 501.543365,160.271439 503.258881,161.358292 
	C507.429108,164.000412 511.222168,163.772629 515.117737,160.525482 
	C516.772766,163.596954 515.909729,166.438110 515.989624,169.611877 
z"/>
<path fill="#000000" opacity="1.000000" stroke="none" 
	d="
M467.508667,208.563751 
	C470.025177,207.829056 471.609283,208.560318 471.694672,210.876984 
	C471.912811,216.797318 471.961060,222.725784 471.966248,228.651093 
	C471.968018,230.656113 471.795013,232.949036 468.990967,232.885468 
	C466.315155,232.824799 465.960968,230.670776 466.001007,228.591736 
	C466.128754,221.962021 465.315369,215.271973 467.508667,208.563751 
z"/>
<path fill="#000000" opacity="1.000000" stroke="none" 
	d="
M502.092529,369.506287 
	C503.338226,368.229034 504.412231,368.136536 505.269165,369.343262 
	C506.417847,370.960754 507.690094,371.237579 509.565247,370.538757 
	C511.727509,369.733002 513.499390,370.809296 514.716492,372.592224 
	C516.065491,374.568359 516.020996,376.671509 514.706421,378.684906 
	C513.472229,380.575195 511.767426,380.982819 509.524841,380.728058 
	C502.526703,379.933105 500.312439,376.885071 502.092529,369.506287 
z"/>
<path fill="#000000" opacity="1.000000" stroke="none" 
	d="
M474.857605,303.390320 
	C475.074341,300.995453 475.965546,299.765259 478.094391,300.053162 
	C480.018829,300.313416 480.296356,301.824677 480.368896,303.396759 
	C480.614349,308.717987 480.908905,314.038116 481.053497,319.362244 
	C481.109467,321.423523 480.825562,323.553040 477.962341,323.505707 
	C475.200256,323.460114 474.856750,321.486969 474.851196,319.336884 
	C474.837830,314.172821 474.839233,309.008698 474.857605,303.390320 
z"/>
<path fill="#000000" opacity="1.000000" stroke="none" 
	d="
M391.596771,361.844757 
	C387.862946,358.244141 387.474609,353.193481 390.533783,349.570129 
	C392.634430,351.261963 394.823944,352.061218 397.874176,351.772278 
	C401.236603,351.453827 402.512299,354.658020 402.118530,357.731781 
	C401.736511,360.713837 399.825653,362.777588 396.604248,361.767487 
	C394.864563,361.221924 393.487610,361.199219 391.596771,361.844757 
z"/>
<path fill="#000000" opacity="1.000000" stroke="none" 
	d="
M547.082031,305.798828 
	C548.500671,305.754486 549.498352,305.764465 550.494690,305.733124 
	C552.228333,305.678650 554.345459,304.723602 555.027954,307.352539 
	C555.607483,309.584625 553.813660,310.052765 552.286377,310.789703 
	C549.893250,311.944336 550.126892,314.275299 550.001160,316.431610 
	C549.895386,318.245544 550.093994,320.218323 549.435303,321.824493 
	C548.535400,324.018829 546.542480,323.954742 545.018005,322.385284 
	C542.803528,320.105408 544.115479,308.052399 547.082031,305.798828 
z"/>
<path fill="#000000" opacity="1.000000" stroke="none" 
	d="
M536.849976,300.585571 
	C539.260254,298.460205 541.875916,298.871063 541.668335,301.614380 
	C541.235291,307.335236 543.099365,312.915192 542.146545,318.586182 
	C542.009705,319.400696 542.044922,320.247803 541.869812,321.051331 
	C541.599731,322.290558 540.864258,323.158752 539.505127,323.196228 
	C537.973022,323.238525 536.980652,322.526001 536.774475,320.934601 
	C536.284363,317.152252 535.460022,313.309692 536.314697,309.561920 
	C536.982910,306.631653 536.917175,303.798920 536.849976,300.585571 
z"/>
<path fill="#000000" opacity="1.000000" stroke="none" 
	d="
M526.945679,394.813599 
	C526.434326,397.089233 526.856689,399.532288 523.402100,399.381073 
	C519.920166,399.228607 519.853943,396.938965 519.888855,394.556091 
	C519.931091,391.670776 520.194458,388.788727 520.460999,384.204895 
	C523.235474,388.416321 525.655396,389.719299 529.370178,389.679169 
	C532.515015,389.645203 533.174744,395.301971 530.673218,399.066162 
	C528.797302,398.796692 529.101868,397.261169 528.866821,396.008514 
	C528.688354,395.056854 529.035156,393.326385 526.945679,394.813599 
z"/>
<path fill="#000000" opacity="1.000000" stroke="none" 
	d="
M372.012146,354.998535 
	C373.006805,353.007599 371.458710,350.411621 373.667999,348.188538 
	C375.621246,350.774170 377.879028,351.813324 381.185669,351.731323 
	C384.595703,351.646820 385.591644,356.859039 383.261414,361.409882 
	C380.164520,360.933105 381.832123,357.731476 380.001526,355.961639 
	C378.986511,359.413574 378.119690,363.321136 372.986938,360.722015 
	C372.771240,359.150787 372.528687,357.383698 372.135254,355.276611 
	C371.984375,354.936615 372.000305,354.979248 372.012146,354.998535 
z"/>
<path fill="#000000" opacity="1.000000" stroke="none" 
	d="
M592.920166,318.961304 
	C594.479797,317.130951 595.918518,317.147980 597.305969,318.631165 
	C598.174133,319.559265 598.380615,320.687988 597.703308,321.808624 
	C596.953857,323.048645 595.803589,323.735291 594.364563,323.258850 
	C592.352722,322.592804 592.189392,321.034698 592.920166,318.961304 
z"/>
</svg>