<svg version="1.1" id="Layer_1" xmlns="http://www.w3.org/2000/svg" xmlns:xlink="http://www.w3.org/1999/xlink" x="0px" y="0px"
	 width="100%" viewBox="0 0 1024 544" enable-background="new 0 0 1024 544" xml:space="preserve">
<path fill="#000000" opacity="1.000000" stroke="none" 
	d="
M415.981567,248.980591 
	C416.723328,251.593552 418.347046,253.682175 420.531921,256.981079 
	C439.761566,221.175888 468.334686,196.216339 504.488922,179.379395 
	C498.814270,171.532059 497.135437,163.475418 498.801392,154.787247 
	C500.444641,146.217575 505.334473,139.569702 511.839752,134.054626 
	C514.240601,132.019257 516.906555,130.255127 519.604309,128.619202 
	C527.456482,123.857597 528.318848,124.151901 531.681213,132.803497 
	C536.583069,145.416168 538.056946,157.942078 529.147827,170.908173 
	C540.831055,168.810211 551.115784,165.695831 561.962219,166.018784 
	C545.202515,170.120621 528.610596,174.582169 512.819397,181.896667 
	C511.085571,178.369415 511.556793,176.490784 514.608765,174.851913 
	C529.868591,166.657486 534.178162,148.492233 524.502747,133.788513 
	C511.803741,137.232574 502.663940,153.200943 504.566498,169.560089 
	C507.741089,160.555557 510.801239,152.191818 518.850708,147.122101 
	C519.859253,148.222916 519.462769,149.047165 518.993774,149.682037 
	C512.773315,158.103989 510.401245,167.639374 511.133057,177.933105 
	C511.422516,182.004303 509.939209,184.092590 506.326385,186.034454 
	C464.723267,208.395905 436.020599,241.398621 423.902527,287.641876 
	C420.859344,299.254791 419.707245,311.248627 420.312500,323.285614 
	C420.548096,327.970825 419.350098,329.799713 414.251190,329.508270 
	C403.429291,328.889709 403.179443,329.141327 403.826050,318.105774 
	C404.577454,305.281464 406.067810,292.345642 411.132202,280.552826 
	C415.188660,271.106995 412.314392,263.900726 407.257690,256.200745 
	C407.000580,256.000671 407.020691,256.018860 406.940552,255.673035 
	C397.838745,237.550278 383.149139,225.917419 364.907837,217.777023 
	C367.330292,215.892212 369.080627,216.827881 370.762939,217.218842 
	C379.813263,219.322128 387.909454,223.431473 395.532257,228.699646 
	C403.599030,234.274643 409.488800,241.959473 416.012939,249.019379 
	C416.002686,249.006393 415.981567,248.980591 415.981567,248.980591 
z"/>
<path fill="#000000" opacity="1.000000" stroke="none" 
	d="
M436.205627,349.006409 
	C436.198517,357.837341 436.081177,366.171417 436.234497,374.500519 
	C436.302155,378.177887 434.899017,379.466522 431.236664,379.424286 
	C419.073669,379.284058 406.906921,379.322510 394.743561,379.462646 
	C391.709808,379.497589 390.628052,378.453400 390.653015,375.428284 
	C390.757568,362.764435 390.771027,350.098572 390.650604,337.435028 
	C390.618713,334.077484 392.179321,333.041565 395.184998,333.045624 
	C407.349579,333.062042 419.514343,333.052032 431.678833,333.000336 
	C434.789978,332.987091 436.283600,334.324615 436.209259,337.509857 
	C436.123779,341.173767 436.199646,344.841461 436.205627,349.006409 
z"/>
<path fill="#000000" opacity="1.000000" stroke="none" 
	d="
M406.990173,255.991821 
	C409.296539,262.807007 409.296539,262.807007 402.273590,264.280762 
	C375.707458,269.855743 349.970154,254.183548 339.941956,226.345673 
	C336.533936,216.885239 334.809357,207.104218 334.176697,197.096695 
	C334.026581,194.722107 334.305511,192.726913 337.094696,192.166565 
	C359.266205,187.712311 393.006714,192.919601 408.931671,217.017761 
	C414.776215,225.861984 417.487061,235.682678 419.085510,245.936005 
	C419.329956,247.503860 420.117432,250.074280 416.329468,249.060974 
	C415.981567,248.980591 416.002686,249.006393 415.919800,248.682556 
	C412.454559,243.967987 410.504883,238.912659 408.503235,233.780472 
	C398.392120,207.855865 372.318695,198.114090 348.715851,199.724411 
	C345.119293,199.969788 343.569580,201.516739 344.241608,205.139130 
	C344.968842,209.059052 345.279327,213.095749 346.398621,216.896866 
	C352.284424,236.885330 363.600861,251.639221 385.200104,256.143158 
	C392.476959,257.660522 399.748840,256.396912 407.020691,256.018860 
	C407.020691,256.018860 407.000580,256.000671 406.990173,255.991821 
z"/>
<path fill="#000000" opacity="1.000000" stroke="none" 
	d="
M654.973389,300.656525 
	C659.478638,288.256439 666.133850,285.404297 680.749023,289.768921 
	C680.749023,286.005249 680.865295,282.426025 680.717712,278.857727 
	C680.556458,274.958282 682.954285,274.687805 685.902100,274.696503 
	C688.806580,274.705078 691.224365,274.876526 691.202209,278.779114 
	C691.127625,291.908234 691.247803,305.038727 691.123901,318.167084 
	C691.086060,322.179474 687.358887,323.705048 682.035583,321.744965 
	C680.368469,321.131134 679.139648,320.864716 677.413391,321.467682 
	C664.931885,325.827240 654.586182,318.317535 654.665527,305.049896 
	C654.673462,303.723328 654.800293,302.397522 654.973389,300.656525 
M671.780029,313.855591 
	C678.001404,313.428192 681.338928,309.671661 680.629272,303.895386 
	C680.060852,299.269409 675.737488,295.760132 671.594482,296.561890 
	C666.940308,297.462555 664.087036,302.641998 665.420471,307.963043 
	C666.158936,310.910065 667.962585,312.958405 671.780029,313.855591 
z"/>
<path fill="#000000" opacity="1.000000" stroke="none" 
	d="
M529.385315,317.366638 
	C527.204041,324.266052 522.199707,322.149994 517.831909,321.956024 
	C516.903381,319.693817 518.203491,318.128998 518.908691,316.546967 
	C524.194824,304.687927 529.636475,292.897949 534.885925,281.022949 
	C536.135193,278.196869 537.923584,276.860657 541.004211,277.023621 
	C543.488586,277.155029 546.064026,276.730347 547.369507,279.722351 
	C553.093262,292.840210 558.874695,305.932831 564.591980,319.053528 
	C564.896667,319.752838 564.805725,320.624573 564.894348,321.376556 
	C557.256653,323.597992 555.415405,322.946747 552.610962,316.714447 
	C551.596436,314.459869 550.264771,313.296143 547.709900,313.364258 
	C543.383240,313.479645 539.046326,313.518768 534.723145,313.349487 
	C531.908081,313.239288 530.364624,314.507874 529.385315,317.366638 
M539.153015,294.794495 
	C537.921265,297.790466 536.689514,300.786438 535.297607,304.171844 
	C539.500366,304.708557 543.003967,305.091797 546.692261,303.667877 
	C545.494324,299.116852 543.699036,295.127808 541.140564,290.831696 
	C540.413757,292.197205 539.894897,293.172028 539.153015,294.794495 
z"/>
<path fill="#000000" opacity="1.000000" stroke="none" 
	d="
M644.802734,291.097290 
	C648.297546,294.223755 649.416382,297.911346 649.358765,302.107269 
	C649.294739,306.769501 649.351013,311.433258 649.321838,316.096130 
	C649.284241,322.110443 647.518982,323.838043 641.849548,321.958588 
	C639.124390,321.055176 637.180664,321.494873 634.882385,322.335693 
	C631.087891,323.723816 627.332153,323.311920 623.671265,321.820648 
	C618.940186,319.893524 616.244690,315.389832 616.957520,310.749725 
	C617.734253,305.692932 621.534912,302.216339 626.822327,301.709473 
	C630.568298,301.350372 634.409241,302.218811 638.148132,301.071411 
	C636.503296,295.760315 635.669922,295.616882 622.643494,298.181274 
	C618.417236,291.920837 619.026062,290.094452 626.217651,288.457306 
	C632.562622,287.012848 638.789368,287.148834 644.802734,291.097290 
M633.836487,315.358704 
	C636.784363,314.314880 639.359741,312.981384 638.899963,309.237183 
	C637.081909,307.836304 635.183594,308.376556 633.408936,308.354889 
	C630.885620,308.324066 627.796265,308.293060 627.539551,311.544678 
	C627.253113,315.172516 630.274414,315.543945 633.836487,315.358704 
z"/>
<path fill="#000000" opacity="1.000000" stroke="none" 
	d="
M587.290466,277.035950 
	C596.749390,277.039764 605.742554,277.138336 614.733215,277.028046 
	C618.477966,276.982147 620.181641,278.323822 620.188660,282.259888 
	C620.195740,286.204376 617.924438,286.389801 614.981567,286.390961 
	C605.421204,286.394684 606.379150,285.338745 606.341003,295.408905 
	C606.313232,302.735809 606.163513,310.068878 606.411255,317.387573 
	C606.549927,321.482910 604.796204,322.421387 601.067749,322.430420 
	C597.173218,322.439880 595.725647,321.053528 595.801575,317.173279 
	C595.970886,308.517517 595.730530,299.853699 595.900879,291.197968 
	C595.973267,287.521454 594.648926,285.921936 590.952759,286.329193 
	C589.801697,286.456024 588.623230,286.314606 587.458191,286.338745 
	C584.969543,286.390228 582.736511,286.285492 582.760620,282.819244 
	C582.781250,279.854889 582.507874,276.896362 587.290466,277.035950 
z"/>
<path fill="#000000" opacity="1.000000" stroke="none" 
	d="
M419.809296,429.438171 
	C416.752136,429.466644 414.104889,429.429474 411.457581,429.423767 
	C405.073212,429.410034 405.068146,429.415985 405.054352,422.789673 
	C405.031982,412.050293 404.335693,412.920685 415.015717,412.916534 
	C421.937775,412.913849 422.262054,413.060394 421.993683,420.266510 
	C421.880280,423.312164 423.706543,426.935822 419.809296,429.438171 
z"/>
<path fill="#000000" opacity="1.000000" stroke="none" 
	d="
M406.308533,403.734680 
	C406.171143,406.357330 404.688293,406.787537 402.907318,407.050476 
	C390.991760,408.809692 389.648438,407.525726 389.726746,395.447540 
	C389.751343,391.650665 390.994019,390.067108 394.857056,390.041626 
	C409.081390,389.947784 406.016541,389.575348 406.331635,400.781464 
	C406.354919,401.608704 406.332825,402.437225 406.308533,403.734680 
z"/>
<path fill="#000000" opacity="1.000000" stroke="none" 
	d="
M433.588928,406.925568 
	C432.965912,406.978973 432.799377,406.993530 432.632965,406.992157 
	C418.586090,406.876495 420.767303,409.216705 420.663818,393.670837 
	C420.654755,392.306427 420.798767,390.817963 422.468384,390.529266 
	C426.751282,389.788635 431.062103,389.690521 435.360870,390.471283 
	C435.665375,390.526581 435.970978,390.749542 436.209595,390.967377 
	C438.777130,393.311371 437.151367,405.213531 433.588928,406.925568 
z"/>
</svg>