<svg version="1.1" id="Layer_1" xmlns="http://www.w3.org/2000/svg" xmlns:xlink="http://www.w3.org/1999/xlink" x="0px" y="0px"
	 width="100%" viewBox="0 0 1024 624" enable-background="new 0 0 1024 624" xml:space="preserve">
<path fill="#000000" opacity="1.000000" stroke="none" 
	d="
M416.941162,277.384033 
	C410.453766,276.011139 404.345886,277.773071 398.233643,277.955170 
	C390.230042,278.193665 382.278503,277.792511 374.304901,277.556366 
	C371.285522,277.466949 371.556549,274.047363 369.230408,272.740326 
	C366.957336,278.196503 363.158661,279.489838 357.338074,278.366028 
	C352.804657,277.490753 347.575287,276.575226 344.243195,282.553497 
	C342.790070,285.160645 338.714386,282.914612 335.875427,282.620667 
	C333.527771,282.377563 331.259430,281.689758 329.232452,283.452881 
	C328.353424,284.217468 327.327393,285.055023 327.813263,286.378784 
	C328.320801,287.761536 329.543365,287.551788 330.771881,287.446625 
	C335.289215,287.059753 341.358276,290.983734 342.720520,295.080322 
	C343.196106,296.510406 342.700409,297.721405 341.709869,298.723724 
	C340.766113,299.678741 339.669647,299.606110 338.495514,299.056274 
	C332.311188,296.160278 325.651123,297.279449 319.255646,297.371368 
	C315.816498,297.420837 312.028748,295.264832 308.703644,298.017029 
	C308.343384,298.315216 307.481903,298.230438 307.343597,298.541504 
	C304.339966,305.295837 298.841705,301.373932 294.349884,301.552887 
	C293.053925,301.604523 291.442566,300.810150 290.914429,302.495636 
	C290.205811,304.757080 292.360596,304.490997 293.610229,305.109589 
	C298.807800,307.682251 303.834045,305.777161 309.920319,305.217163 
	C311.477631,306.537842 313.464233,308.615723 311.677368,311.717499 
	C312.797699,313.668396 315.762909,312.800720 315.738312,315.516754 
	C314.393005,317.169983 312.328491,316.665466 310.693939,316.687714 
	C292.662384,316.933228 274.588287,317.712250 256.619476,316.693237 
	C251.184494,316.384979 245.539032,318.648773 239.758591,315.836609 
	C237.862442,314.914124 233.041046,317.223938 229.416916,317.205811 
	C221.618393,317.166840 213.742889,317.992279 206.074295,317.723755 
	C195.842834,317.365448 185.572617,317.593445 175.336288,316.878357 
	C169.571762,316.475616 163.743729,316.946655 157.945633,317.081573 
	C156.242142,317.121216 154.530869,317.102051 153.159378,316.042969 
	C150.395187,313.908417 148.077606,314.860870 144.959534,315.794800 
	C140.873962,317.018524 136.468964,317.142059 133.537216,320.165985 
	C131.073181,319.017914 132.754120,317.422821 132.027023,316.193481 
	C131.625000,316.233002 131.153809,316.217072 130.716766,316.331512 
	C123.642242,318.184143 116.569496,315.885742 109.486267,316.275787 
	C108.205116,316.346344 106.924934,316.099182 105.600388,316.465179 
	C103.152756,317.141571 100.059074,317.953217 99.637428,314.377136 
	C99.282852,311.369995 98.680878,307.247498 103.777901,306.890167 
	C105.410507,306.775726 106.581207,306.102417 107.581749,304.853638 
	C108.860367,303.257812 110.551613,302.948608 111.777252,304.647736 
	C113.429939,306.938873 115.637932,306.832489 117.994980,306.908478 
	C123.762909,307.094360 129.612244,306.119843 135.274521,308.126526 
	C135.891190,308.345062 136.807770,307.743713 137.577682,307.498901 
	C141.507004,306.249329 145.377075,305.509369 148.646179,309.020813 
	C151.093689,304.820892 148.155304,298.558899 143.563660,298.200775 
	C134.313583,297.479370 125.076920,296.503906 115.747177,297.880432 
	C111.704773,298.476837 107.464310,298.062469 103.346123,297.719360 
	C99.320671,297.383911 97.618248,292.271393 100.171150,288.753754 
	C101.376419,287.093018 104.357437,286.520966 103.729874,283.794983 
	C103.225914,281.605896 105.715889,280.345520 105.121330,278.303162 
	C103.172127,276.867340 102.786186,280.034058 100.633186,279.220795 
	C97.924973,276.189941 97.756119,271.817902 99.857239,268.587128 
	C102.197670,264.988403 107.054527,265.905396 110.829338,266.339813 
	C116.232269,266.961578 117.546730,266.398285 119.180504,260.333710 
	C114.845573,257.650269 110.286301,257.421417 105.486290,259.089905 
	C101.057350,260.629425 99.216393,259.372040 99.061729,254.731781 
	C99.034058,253.901306 99.083916,253.064621 99.151299,252.235153 
	C99.761452,244.725037 102.025673,243.527237 108.450562,247.573883 
	C111.501404,249.495407 114.582565,248.250458 117.647850,248.207794 
	C121.555733,248.153397 125.477554,247.650665 129.151978,248.629028 
	C130.066360,251.336731 128.169769,252.801834 127.698822,254.666809 
	C127.327995,256.135315 126.820976,257.600800 128.064880,258.892242 
	C128.821686,259.677979 129.797943,259.897400 130.814728,259.507019 
	C132.721786,258.774902 133.014389,257.061432 132.928421,255.378510 
	C132.828247,253.416977 132.412903,251.471558 132.116699,249.395737 
	C136.640945,247.084229 142.481400,249.714752 146.139481,244.774292 
	C149.958130,248.703781 153.623245,249.366745 156.798737,244.527939 
	C162.959000,250.403152 173.160492,250.421951 179.078476,244.604858 
	C181.206512,245.989380 180.940094,248.213989 181.087265,250.285431 
	C181.204865,251.940247 181.227325,253.620453 181.555313,255.235931 
	C181.829132,256.584473 182.644897,257.909271 184.289780,257.493042 
	C186.029648,257.052795 185.790512,255.560257 185.430481,254.206131 
	C184.984604,252.529068 183.354858,251.058548 184.688965,248.785126 
	C193.678940,249.293350 202.619476,247.462296 212.010254,248.852356 
	C218.997787,249.886688 226.689972,247.727020 234.130875,248.467285 
	C234.573257,248.511322 235.201965,248.264755 235.501083,247.933853 
	C241.873032,240.884598 249.855743,245.847672 256.972290,245.557999 
	C260.009155,245.434418 263.297882,249.052170 267.461304,248.608612 
	C271.929047,248.132645 275.252106,246.316010 277.720490,242.384567 
	C274.772369,239.074783 271.087494,238.587616 267.205475,238.845215 
	C264.880859,238.999481 261.734283,238.528717 261.819458,236.521622 
	C261.956573,233.289612 259.519043,229.630569 262.733551,226.667435 
	C265.107300,224.479294 267.177795,225.802460 269.562042,226.835617 
	C274.549652,228.996902 279.996735,228.469025 285.225861,228.475754 
	C290.071350,228.481964 295.000732,229.000687 299.784302,226.442703 
	C302.354614,225.068192 303.772919,228.495712 305.231445,230.978271 
	C306.412994,228.963196 305.915344,225.948318 308.927338,225.595245 
	C311.214630,225.327148 313.229187,225.862366 314.950775,227.391083 
	C315.862640,228.200806 316.839752,228.574585 318.109741,228.569778 
	C328.991058,228.528549 339.873932,228.461105 350.753448,228.611801 
	C354.879761,228.668945 358.699615,228.280212 361.567413,225.110840 
	C369.406311,229.614761 370.999878,233.490875 367.339539,239.538101 
	C362.735931,235.326736 355.594116,243.333633 351.157715,235.511810 
	C351.364563,239.532074 349.096466,239.688751 346.285309,239.935638 
	C338.836761,240.589752 331.503815,239.313095 324.115875,239.065231 
	C321.065155,238.962906 318.084717,239.247879 315.269745,240.318848 
	C311.682190,241.683746 310.869293,245.576813 314.001617,247.668808 
	C316.484161,249.326843 317.152527,251.162430 316.892365,254.152039 
	C318.184174,250.638412 319.747406,247.945175 323.788696,247.984024 
	C326.838287,248.013336 327.878113,250.141937 328.859558,253.553802 
	C330.254822,249.459061 329.555420,245.908051 331.858154,242.931900 
	C335.811035,245.760315 332.934326,250.372879 334.878265,253.525513 
	C337.162903,253.106781 336.926178,251.320389 336.901733,250.001968 
	C336.811462,245.128342 339.241150,244.057587 343.628784,244.780823 
	C346.670502,245.282227 349.580750,247.020447 352.594025,245.783569 
	C354.282104,247.333908 353.895477,249.108597 353.934326,250.711502 
	C354.000610,253.445602 355.029510,255.249985 357.964691,255.348038 
	C360.601440,255.436096 362.108063,253.939697 362.076782,251.415390 
	C362.048187,249.107346 363.501007,248.050034 365.106354,248.371429 
	C369.436432,249.238388 373.666199,247.063354 377.966492,248.334335 
	C380.414978,249.057968 382.596924,248.455017 383.965302,246.070435 
	C384.825317,244.571671 385.741943,242.906250 387.777496,243.905487 
	C390.006683,244.999786 389.289734,247.009583 388.610626,248.722229 
	C387.118774,252.484451 388.061615,256.440796 386.445984,261.081604 
	C391.266693,259.183563 390.574982,255.856888 390.935608,253.203003 
	C391.153809,251.597229 390.491058,249.887207 390.587646,248.245392 
	C390.699799,246.338333 392.040924,244.470764 393.735870,246.181610 
	C396.556854,249.029007 400.548889,249.000488 403.025604,248.389694 
	C411.952362,246.188141 420.804504,250.055344 429.539124,247.902786 
	C433.200256,247.000519 437.314178,247.534424 440.401642,244.423843 
	C443.149872,246.126221 444.679169,249.716782 448.906677,248.571548 
	C450.837708,248.048416 450.798431,250.248398 450.304779,251.829315 
	C449.133881,255.578934 448.003906,259.341339 446.827209,263.197510 
	C450.586975,262.328217 453.946747,257.956421 453.546295,253.751465 
	C453.077728,248.830963 455.767700,248.044724 459.600861,248.241394 
	C463.538452,248.443451 467.547150,249.230011 471.062927,246.551453 
	C471.304413,246.367477 471.825012,246.182846 471.976807,246.302292 
	C475.012543,248.691040 478.867554,246.407608 481.180176,247.209259 
	C484.796600,248.462875 488.490723,246.967133 491.579651,249.117020 
	C493.974548,243.656113 496.137146,243.394287 500.052673,247.248352 
	C502.652649,249.807510 506.272034,248.436615 509.421661,248.563950 
	C513.051392,248.710678 516.734192,247.946579 520.336365,248.253510 
	C523.509521,248.523865 526.304443,248.833542 528.226440,245.683319 
	C528.831421,244.691666 529.820007,244.451538 530.820007,245.043427 
	C532.066772,245.781372 532.701599,246.976791 532.532043,248.415482 
	C532.222046,251.044205 531.810730,253.661667 531.404114,256.277985 
	C531.245361,257.299835 530.807983,258.056732 529.697937,258.488861 
	C524.369263,260.563232 517.297424,258.845825 513.153320,254.050812 
	C512.599365,258.655457 510.393646,259.265167 506.105164,258.678162 
	C499.969360,257.838257 493.617462,258.429230 487.365143,258.632965 
	C481.900543,258.811035 476.512390,256.409241 470.917999,258.573639 
	C469.422272,259.152283 467.382294,258.770660 465.744232,259.746124 
	C461.783783,262.104584 457.203979,262.024994 452.958496,262.450958 
	C452.191620,265.032074 453.443207,266.453339 455.078369,266.646973 
	C459.747009,267.199707 459.812225,270.599731 460.084808,273.941864 
	C460.234406,275.776306 459.581635,277.315765 457.600006,277.720062 
	C454.256226,278.402191 450.937897,278.674805 448.341522,275.744812 
	C447.800415,275.134216 447.289368,274.497009 446.447571,273.494751 
	C445.537872,277.929749 442.664215,277.899231 439.175140,277.673523 
	C433.577972,277.311462 427.940186,277.576447 422.304260,277.576447 
	C422.733917,269.506622 422.187958,268.534912 417.000031,267.911407 
	C415.734192,271.054596 420.062317,274.118927 416.941162,277.384033 
M205.096710,286.855957 
	C208.064163,287.050385 209.910706,285.924988 210.062912,282.716309 
	C210.208466,279.647858 207.761993,279.177216 205.744537,278.864746 
	C202.362228,278.340820 198.522797,277.113281 195.613647,277.809723 
	C188.458984,279.522522 180.907730,275.378937 174.095703,279.696838 
	C173.572906,280.028259 172.510406,279.466675 171.692413,279.380249 
	C163.473129,278.511780 155.252258,277.552429 146.992126,278.887329 
	C145.393753,279.145660 143.510529,279.204468 143.783218,281.638031 
	C145.311630,283.793549 148.193680,281.723907 149.702866,283.670685 
	C153.318344,288.334412 158.481796,288.047546 163.414352,287.534088 
	C177.012451,286.118530 190.647369,288.248993 205.096710,286.855957 
M236.629883,298.599060 
	C232.321152,294.677795 228.617340,297.241760 224.692764,299.399353 
	C230.186371,307.069794 230.182770,307.056427 239.156021,304.643005 
	C240.094284,304.390656 241.399078,303.965942 242.038040,304.382233 
	C246.569489,307.334320 251.016418,307.404541 256.384796,306.309631 
	C262.441956,305.074219 269.231506,308.608398 275.006409,303.811188 
	C275.459351,303.434937 276.692322,303.607391 277.356567,303.938477 
	C281.978790,306.242462 283.993713,303.371918 286.517395,298.867828 
	C269.743530,296.773285 253.832672,295.104584 238.668060,303.052948 
	C237.648926,301.408173 240.206161,299.210876 236.629883,298.599060 
M265.232941,286.788727 
	C273.834656,287.818481 282.442688,286.916809 291.035278,286.683319 
	C294.844116,286.579803 297.764648,284.478394 298.101257,279.509796 
	C293.653778,280.515717 289.657959,280.482697 286.215027,277.623077 
	C285.884430,277.348480 285.107819,277.174133 284.804718,277.368591 
	C280.161987,280.347351 275.209778,278.066864 270.413971,278.313751 
	C266.764801,278.501617 263.940918,282.636597 265.232941,286.788727 
M112.811478,282.001984 
	C112.832390,284.214417 112.809196,286.832184 115.733139,286.879303 
	C123.356728,287.002167 130.991547,286.887604 138.610153,286.578369 
	C140.891006,286.485809 141.864151,284.467804 141.848343,282.235992 
	C141.831818,279.902008 140.146088,279.939636 138.396591,279.678009 
	C136.290741,279.363098 134.071625,278.896545 132.235046,277.888214 
	C128.884979,276.048981 126.256248,276.581116 123.955009,279.428711 
	C122.501595,281.227173 121.068222,281.299713 119.312607,279.807800 
	C116.594032,277.497559 114.489975,278.268860 112.811478,282.001984 
M287.257568,246.268753 
	C288.581451,244.400925 289.520233,240.858017 292.501373,244.461700 
	C296.350250,249.114304 298.933563,249.305145 304.264038,244.476013 
	C301.709808,242.165451 299.185394,239.881836 296.562012,237.508698 
	C294.814362,240.209579 292.658905,240.117096 289.947540,239.511673 
	C286.325653,238.702927 282.308411,238.396942 281.199738,243.357971 
	C280.423767,246.830597 280.200562,250.426758 279.676392,254.374771 
	C283.672089,252.758057 281.657349,246.551422 287.257568,246.268753 
M208.903931,263.187897 
	C209.211548,260.512787 207.808044,259.783661 205.383789,258.891510 
	C200.985779,257.272980 197.382812,259.926605 193.383133,260.127930 
	C191.343811,260.230530 189.878677,261.496979 189.694870,263.522064 
	C189.508240,265.578461 191.526108,265.923859 192.864868,266.841461 
	C195.733719,268.807831 198.787979,266.194641 201.532150,267.321594 
	C205.341751,268.886139 207.506393,267.492676 208.903931,263.187897 
M424.250061,258.644440 
	C421.903687,259.134735 419.439453,259.269958 417.317505,261.022003 
	C421.212280,260.455109 424.057007,262.961700 427.281952,264.106659 
	C429.579590,264.922394 431.209534,267.066772 433.968903,267.740601 
	C436.901489,268.456726 438.959290,268.512115 440.010559,265.556152 
	C441.168457,262.300354 439.026764,260.195587 436.356720,259.608246 
	C432.690826,258.801880 428.929077,257.731903 424.250061,258.644440 
M189.387863,305.819092 
	C192.077820,305.453796 193.732254,303.473328 195.322067,301.652313 
	C197.216797,299.482117 196.596405,297.130341 193.719116,297.100983 
	C188.677078,297.049591 183.535690,297.302307 178.459488,299.155365 
	C180.405807,304.330139 184.139404,305.682159 189.387863,305.819092 
M248.077087,281.269257 
	C246.587814,282.186157 243.421295,280.395020 243.512024,283.667175 
	C243.589951,286.476898 246.156189,286.350708 248.269409,286.968201 
	C253.129013,288.388123 256.855957,285.040070 261.175476,284.280457 
	C262.946289,283.969055 262.309052,281.742798 261.377533,280.501160 
	C259.626221,278.166809 250.785080,278.453064 248.077087,281.269257 
M154.981857,300.413574 
	C158.097382,301.250885 156.067535,302.837769 155.254517,304.383606 
	C161.475662,306.783752 167.754669,306.885010 174.067612,306.731598 
	C175.605118,306.694244 176.692749,306.060333 176.661850,304.378143 
	C176.627548,302.510468 175.412064,302.476166 173.882095,302.546783 
	C168.003372,302.818085 161.967468,303.989288 157.448807,298.287994 
	C156.178726,296.685516 154.298019,297.215546 154.981857,300.413574 
M218.653351,286.548981 
	C220.700638,285.833618 224.184128,287.064697 223.892166,283.152832 
	C223.790207,281.786957 222.101379,281.257416 220.678589,281.672760 
	C219.011261,282.159515 216.697311,281.322205 215.776901,283.273621 
	C214.952057,285.022430 216.497757,285.876465 218.653351,286.548981 
M409.529480,268.619568 
	C409.083099,266.917786 408.251129,265.630798 406.498627,267.212036 
	C404.653625,268.876831 404.854828,273.467957 406.675446,274.988159 
	C408.545471,273.551483 408.555237,271.203308 409.529480,268.619568 
M213.920609,265.684235 
	C214.249634,267.481018 212.586533,269.539307 214.832092,271.406525 
	C215.938705,269.907745 217.136551,268.570587 217.996918,267.043335 
	C218.938065,265.372711 217.752823,264.151367 216.487289,263.346344 
	C214.716339,262.219849 214.189362,263.480591 213.920609,265.684235 
M392.575317,267.823914 
	C393.507294,267.035248 395.109802,266.807709 394.922028,264.901703 
	C393.553253,264.490143 392.155701,264.110809 390.787170,263.646057 
	C389.607300,263.245392 388.435913,262.992523 387.847473,264.403992 
	C387.281982,265.760406 388.336609,266.527222 389.255402,267.234833 
	C390.056335,267.851685 390.954895,268.240356 392.575317,267.823914 
M308.321075,282.829651 
	C307.141205,281.258179 305.751556,280.864288 304.231079,282.287018 
	C303.311523,283.147491 303.228302,284.297363 303.769775,285.420227 
	C304.259552,286.435852 305.205078,286.735229 306.218933,286.528198 
	C307.878082,286.189423 309.550476,285.751038 308.321075,282.829651 
M253.281754,250.471344 
	C250.583176,251.992004 251.115067,253.899796 252.149765,256.816833 
	C254.130371,254.493591 253.961548,252.738113 253.281754,250.471344 
z"/>
<path fill="#000000" opacity="1.000000" stroke="none" 
	d="
M234.125916,397.645081 
	C227.210159,393.547638 220.027237,395.758911 213.078171,395.647369 
	C211.765839,395.626282 210.451599,396.051697 209.131775,396.102173 
	C206.561371,396.200562 203.932388,395.996033 202.636093,393.367676 
	C201.343658,390.747162 201.789978,388.093353 203.841629,385.978363 
	C205.692734,384.070129 206.052902,382.407532 203.573807,380.412231 
	C201.299561,382.292145 199.826065,384.867737 197.539474,386.693542 
	C195.846466,388.045349 195.733200,390.200012 198.408997,391.419312 
	C200.226181,392.247345 200.855560,393.714844 199.653534,395.488892 
	C198.704178,396.890045 197.510925,398.260895 195.546204,397.510132 
	C188.638077,394.870300 181.440811,396.452362 174.387909,395.970825 
	C172.570541,395.846771 170.556152,396.398071 168.951416,395.792908 
	C164.509277,394.117676 160.942230,395.296112 158.103821,398.403717 
	C155.922012,397.868866 156.419281,395.610870 154.941315,394.969513 
	C146.561340,396.971191 145.085526,395.786041 144.846527,386.866089 
	C144.608139,377.969330 143.370239,376.663696 134.414993,376.259155 
	C128.944855,376.012054 123.551254,376.881317 118.125664,377.356415 
	C112.794945,377.823151 107.252380,376.508392 101.880486,375.543030 
	C99.824738,375.173584 98.448074,368.491913 99.543999,366.120087 
	C101.014503,362.937531 103.189407,364.098297 105.366180,365.133636 
	C109.061356,366.891296 112.940552,365.480408 116.714188,365.615662 
	C121.470222,365.786102 126.713478,367.890869 130.916824,365.546478 
	C135.965256,362.730713 140.355728,364.022430 145.373337,364.647430 
	C153.443970,365.652740 161.664093,365.416199 169.813583,365.845886 
	C174.707703,366.103882 173.993042,370.553528 174.550415,373.406464 
	C175.135834,376.403046 172.421265,376.298096 170.082520,376.305756 
	C164.655319,376.323517 162.392929,378.767517 162.542664,384.943817 
	C164.966003,379.873047 166.595276,380.369507 170.006790,383.847382 
	C173.119659,387.020813 177.930679,385.447662 181.706955,382.949341 
	C186.441254,386.990387 187.063889,386.896851 190.158493,381.179596 
	C190.825836,379.946686 192.059250,379.529694 193.776184,378.402924 
	C189.327988,377.338196 185.590408,376.960114 181.941925,377.576080 
	C178.240631,378.201019 177.015594,376.339233 176.650192,373.346588 
	C176.389221,371.209259 176.358932,369.010284 176.529648,366.862976 
	C176.704590,364.662354 177.127014,362.458679 180.267059,362.670349 
	C181.887024,362.779572 183.084290,361.855927 184.132904,360.101166 
	C180.117355,358.298523 177.643936,355.502350 171.574432,356.909393 
	C166.001175,358.201355 158.979019,357.071747 152.674744,357.761292 
	C144.298050,358.677490 136.191238,354.458160 127.744102,356.977173 
	C124.970665,357.804260 122.867477,356.341492 122.977501,352.957794 
	C123.087990,349.559479 122.590141,346.013306 125.409912,342.713898 
	C128.902573,345.370270 131.947433,348.460052 136.682877,346.464417 
	C138.190872,345.828918 139.863495,345.670990 141.015198,344.323486 
	C142.884933,342.135864 145.580826,342.201324 147.391861,343.476044 
	C152.630386,347.163422 158.422043,345.971375 164.063583,346.053070 
	C167.531326,346.103302 171.069550,345.355347 173.909164,348.495758 
	C176.186752,345.845398 178.131790,343.324615 181.701538,343.193787 
	C182.885620,343.150452 184.141830,342.737610 184.983765,343.702423 
	C190.141052,349.612366 195.632309,346.014496 201.522202,344.516205 
	C203.425232,345.724884 205.133469,347.290985 203.286804,350.280731 
	C202.414536,351.692932 202.790314,352.998413 204.425323,353.408783 
	C206.586914,353.951233 206.841843,352.267242 207.045135,350.715790 
	C207.376816,348.184631 206.449799,345.323486 209.220001,343.059082 
	C215.054733,348.261414 222.047440,346.552155 228.861572,346.160309 
	C231.350327,346.017212 233.813065,345.938751 236.324600,346.340851 
	C240.318054,346.980225 244.379181,347.304016 246.530045,342.691254 
	C252.068909,347.201569 257.423370,348.750275 263.067688,343.484100 
	C263.865021,342.740204 265.241089,342.639496 265.756561,343.555969 
	C268.051544,347.636383 272.018829,345.876526 275.191559,346.145752 
	C277.858521,346.372009 280.280029,346.473663 282.816010,347.681946 
	C286.524567,349.448914 288.774323,345.094238 292.136963,344.686920 
	C293.108673,344.569214 293.950226,343.376434 295.204346,342.402466 
	C300.865997,350.668945 309.084717,345.048859 316.097382,346.390533 
	C316.979156,346.559296 318.234772,345.010193 319.250977,344.176270 
	C320.342957,343.280151 321.922974,342.247162 322.718506,343.587219 
	C325.822906,348.816437 328.081085,345.921631 330.541718,342.640289 
	C334.283905,345.974609 337.717499,346.330994 342.165894,343.479645 
	C346.049042,340.990540 351.447144,345.308319 350.996490,349.930511 
	C350.843506,351.499451 350.625214,352.881744 352.480835,354.052704 
	C355.494598,350.973022 352.329315,346.049438 356.192627,342.602356 
	C359.042480,347.133667 363.127594,347.315430 367.787933,346.062439 
	C370.093323,345.442627 371.437805,347.265411 371.897339,349.460571 
	C372.187317,350.845673 372.298279,352.268280 372.558289,354.179260 
	C377.010498,351.128784 372.111023,345.700592 376.628540,343.069000 
	C383.391510,349.072998 390.907440,346.880005 398.137054,343.941711 
	C401.783020,342.459930 401.863831,345.255554 403.299347,347.135071 
	C406.586853,344.815918 410.198090,348.346741 413.860107,346.204498 
	C415.554840,345.213165 416.719696,341.373810 419.498383,343.728546 
	C421.725647,345.616028 419.984283,348.482117 419.844879,350.854156 
	C419.484985,356.979279 419.190796,356.844330 412.840363,356.438049 
	C404.934631,355.932190 396.987305,357.723999 389.078400,356.359985 
	C382.498901,355.225189 376.073181,358.596130 369.520813,356.951233 
	C362.661011,355.229156 355.943970,356.660309 349.200256,357.658386 
	C346.381989,358.075500 345.632172,355.749969 344.082214,353.632385 
	C341.559723,358.867554 337.360443,357.915771 333.043762,357.121826 
	C327.439819,356.091156 321.960480,355.231567 317.627319,360.794373 
	C315.641235,363.344025 313.893036,361.255798 313.180786,358.473755 
	C310.731079,360.812836 308.729248,361.467529 306.647766,358.613770 
	C304.788086,356.064087 301.587585,356.783722 299.173279,356.838226 
	C294.146606,356.951752 288.459442,354.714905 284.350037,359.813324 
	C283.692688,360.628876 282.475922,360.997833 281.699585,360.084137 
	C279.228180,357.175232 277.182190,358.511841 274.333466,359.840240 
	C271.500275,361.161407 267.913635,361.357910 264.693634,361.217438 
	C261.612671,361.083038 260.496155,362.141998 260.067078,364.955444 
	C258.364990,376.115540 258.324951,376.079010 246.848297,376.141815 
	C243.128799,376.162140 239.848846,375.303650 236.474167,379.390594 
	C232.902939,383.715607 231.956055,378.309204 231.353958,375.679596 
	C228.587204,375.328339 227.978165,376.881683 227.656143,378.574127 
	C227.320679,380.337158 228.735550,380.648560 229.968491,381.262177 
	C234.468094,383.501404 232.903000,387.297089 232.178619,390.806061 
	C237.886292,392.491058 238.339142,393.883331 234.125916,397.645081 
M227.785751,366.102417 
	C236.599884,366.193909 245.366257,364.386871 254.223267,365.554565 
	C256.230774,365.819244 258.358948,364.629333 256.932892,362.301178 
	C255.331192,359.686279 253.114014,357.434113 249.341278,357.641174 
	C244.776917,357.891693 240.057373,358.348816 235.641068,357.495148 
	C230.124969,356.428833 224.617432,356.963898 219.191605,356.877716 
	C212.978653,356.779053 206.689743,357.494659 200.451935,356.923676 
	C196.435410,356.556030 193.004654,357.326965 189.648621,359.624603 
	C187.903595,360.819336 186.567047,361.829315 187.511826,363.914062 
	C188.396652,365.866516 190.081238,367.154907 192.358978,366.336578 
	C197.378189,364.533356 202.792007,365.069366 207.697739,365.312256 
	C214.112885,365.629822 220.628464,365.159790 227.785751,366.102417 
M217.598984,382.570129 
	C216.549301,381.760651 215.671616,381.562531 215.986725,383.337341 
	C216.264175,384.900116 217.382462,386.529449 218.853378,386.241699 
	C221.001022,385.821564 223.486664,385.115906 224.274368,381.906403 
	C221.821091,381.591614 220.228256,384.663574 217.598984,382.570129 
z"/>
<path fill="#000000" opacity="1.000000" stroke="none" 
	d="
M410.294006,396.701477 
	C408.705109,396.109192 407.401367,395.283722 406.195374,395.407837 
	C391.980286,396.871094 377.760529,394.929169 363.531494,395.627167 
	C351.726593,396.206238 339.878021,395.853546 328.050598,396.033844 
	C323.156677,396.108490 318.368896,396.381989 318.346527,389.403137 
	C318.344940,388.907379 317.648590,388.413849 317.143890,387.745178 
	C313.789276,389.912628 317.672150,392.467987 316.088257,394.889282 
	C309.344513,396.858521 302.115723,395.097351 294.972595,395.276062 
	C290.496063,395.388031 285.863678,395.205658 281.539001,395.634033 
	C269.442719,396.832214 269.097778,397.030609 267.879730,384.665985 
	C265.702332,386.773834 266.392975,389.181580 266.494476,391.330017 
	C266.627808,394.151581 265.710541,395.937103 262.706696,395.963135 
	C256.215698,396.019409 249.720322,396.088684 243.234467,395.894470 
	C241.281631,395.835999 238.639526,394.910278 239.130508,392.530090 
	C239.713013,389.706268 239.492416,385.587341 243.713562,385.126373 
	C247.318878,384.732605 251.147583,384.320435 254.611389,385.535645 
	C258.066833,386.747894 260.494446,386.185608 262.124329,383.017212 
	C263.032288,381.252197 265.039948,380.847076 266.059753,379.369720 
	C266.034241,378.979828 266.143707,378.497192 265.972717,378.357208 
	C262.634033,375.624664 260.530853,372.358246 262.312958,367.965179 
	C264.173828,363.377899 268.287201,365.078186 271.453247,365.506042 
	C279.417786,366.582336 287.393860,365.425079 295.414673,366.258575 
	C301.626404,366.904083 308.135010,365.125580 314.603058,365.137756 
	C317.391876,365.143005 320.127563,364.006042 322.686615,365.992950 
	C323.422974,366.564728 324.580688,366.556610 324.960175,365.860260 
	C327.938019,360.395752 333.628906,364.476776 337.566681,362.218414 
	C338.981964,361.406647 340.154724,363.067169 341.240570,364.157288 
	C344.019073,366.946686 346.459106,369.864807 351.223450,366.464600 
	C353.294220,364.986816 357.030457,365.627716 360.003967,365.677917 
	C365.032959,365.762787 370.157837,366.869720 374.574066,363.198853 
	C374.971466,362.868530 376.171814,363.236084 376.861481,363.566803 
	C383.989166,366.984741 391.148102,366.403625 398.749023,364.059326 
	C401.697693,365.520477 401.456268,368.476501 400.693512,371.734680 
	C404.468140,372.198792 407.807648,373.348846 408.991455,368.165405 
	C409.673889,365.177307 412.434479,365.226105 415.116943,365.404266 
	C418.390289,365.621704 421.500397,366.887573 424.962799,366.186279 
	C427.956696,365.579865 430.800934,365.201721 432.346100,362.517761 
	C435.042267,362.425476 434.333527,365.193024 435.854889,365.888245 
	C438.029297,366.143311 438.808197,363.931366 440.842438,363.098419 
	C446.253876,368.346802 453.384186,365.994019 459.948059,366.243652 
	C459.947723,372.311737 459.947723,372.311737 461.822906,374.099731 
	C462.234802,373.592407 462.976837,373.104401 462.984711,372.604828 
	C463.101013,365.211243 468.071686,365.587189 473.317719,365.782166 
	C484.357239,366.192474 495.403931,364.945831 506.457458,365.842102 
	C509.594696,366.096466 512.899902,366.135284 514.530212,361.993164 
	C518.151123,365.357819 522.690857,367.335358 522.099304,373.105011 
	C521.875488,375.287659 521.315857,376.559235 518.808167,376.341431 
	C517.170959,376.199249 515.470825,376.662384 513.851440,376.451172 
	C501.686005,374.864502 489.506531,376.492249 477.338562,376.196655 
	C474.853638,376.136261 472.500702,375.978394 470.037842,375.096375 
	C466.511688,373.833466 463.309235,375.949249 460.527893,377.860443 
	C457.291962,380.083954 454.354279,381.014893 451.009491,378.305573 
	C450.402283,377.813751 449.391449,377.221313 448.794312,377.406891 
	C441.427124,379.696686 434.229584,376.942993 426.955750,376.841675 
	C426.401855,376.833954 425.840393,377.366364 424.077087,378.255554 
	C429.360779,378.967072 433.066772,381.149750 437.368286,380.858521 
	C441.365021,380.587891 443.276825,382.339264 443.135345,386.399292 
	C443.037903,389.196564 443.116638,392.000000 443.116638,395.177094 
	C438.672241,396.079803 434.073853,395.114471 429.514404,395.175171 
	C427.937927,395.196167 426.310181,393.884583 426.855316,392.248871 
	C428.035858,388.706635 427.637024,386.350525 423.544159,385.708160 
	C419.082520,385.007965 420.112854,389.174194 418.509857,390.589813 
	C419.120453,392.247192 419.966797,392.199799 420.804657,392.058472 
	C422.277161,391.810150 423.606689,392.008362 423.885773,393.701202 
	C424.158630,395.356415 423.270203,396.781860 421.806091,397.347412 
	C418.066162,398.792023 414.218140,400.289337 410.294006,396.701477 
M296.807312,384.834534 
	C299.523071,385.230988 302.486359,385.139557 304.570740,383.665283 
	C308.358276,380.986542 311.461853,380.374420 314.086365,384.636658 
	C316.407013,383.425415 314.132385,381.112915 316.505890,379.710754 
	C319.347046,385.360382 324.273468,386.359314 330.236816,385.666351 
	C335.616547,385.041168 341.182312,385.584015 344.759949,380.804413 
	C346.925537,382.435516 345.754974,384.688690 347.600800,385.876678 
	C351.915771,384.504333 356.571411,385.328369 361.154022,384.926514 
	C363.428192,384.727081 365.105621,383.770233 364.462494,381.097107 
	C363.941895,378.933319 363.877594,375.819153 360.495636,376.575623 
	C357.639740,377.214386 354.684265,377.183258 352.117859,376.711456 
	C348.236603,375.997894 345.282257,380.347778 341.304993,377.881165 
	C338.242218,375.981812 334.536957,376.002838 331.093292,376.155762 
	C324.195709,376.462067 317.347351,377.986664 310.412628,376.148834 
	C308.702332,375.695557 306.508209,376.125702 305.233063,377.470978 
	C301.603485,381.300079 298.112091,380.611908 294.138458,378.023376 
	C291.626434,376.387024 288.908386,376.093262 287.298737,379.977142 
	C290.348114,381.667053 293.170685,383.231293 296.807312,384.834534 
M399.215668,381.561127 
	C401.835388,378.991669 401.689972,377.738251 398.325348,376.773224 
	C393.253387,375.318481 388.532471,375.838074 385.167755,380.246552 
	C383.057465,379.965942 381.759094,377.125275 379.569214,379.215118 
	C378.372345,380.357361 377.840698,381.758942 378.583099,383.241669 
	C379.762085,385.596252 382.046448,384.921814 383.875397,384.573883 
	C387.843475,383.819092 392.385010,385.300262 395.683014,381.579529 
	C396.111267,381.096405 397.567444,381.524353 399.215668,381.561127 
M414.341400,377.147980 
	C408.518127,377.509521 407.242859,380.713318 410.904633,386.309662 
	C413.312622,385.615112 415.787048,384.901367 418.433563,384.138031 
	C418.292206,381.192200 417.807617,378.719208 414.341400,377.147980 
z"/>
<path fill="#000000" opacity="1.000000" stroke="none" 
	d="
M750.780334,187.877075 
	C756.785278,192.404114 758.712280,197.579987 756.971130,203.739990 
	C755.508057,208.916138 750.664734,212.976624 744.102600,213.085617 
	C726.463074,213.378616 708.810547,213.456207 691.173950,213.093994 
	C683.672974,212.939926 678.247375,206.785736 678.070740,199.821426 
	C677.896667,192.959229 682.620972,187.669800 690.286377,186.348953 
	C692.402100,185.984390 694.589844,185.923172 696.744873,185.919525 
	C711.061279,185.895386 725.377808,185.932159 739.694275,185.931595 
	C743.375366,185.931442 747.019531,186.093414 750.780334,187.877075 
z"/>
<path fill="#000000" opacity="1.000000" stroke="none" 
	d="
M679.921387,267.837463 
	C683.798706,267.738586 687.385925,270.117157 690.950867,267.583038 
	C691.379761,267.278137 692.601196,267.751099 693.254761,268.173706 
	C694.405762,268.918030 693.992371,279.833160 692.875366,280.687653 
	C690.337463,282.629089 686.972778,281.280518 686.523071,278.061951 
	C686.341919,276.765320 686.493225,275.422211 686.493225,273.950134 
	C685.393677,274.701019 685.797974,276.550018 684.151306,276.798645 
	C681.393616,276.257690 683.558044,273.176117 681.870422,271.994446 
	C679.601135,272.850372 681.048340,275.452850 679.455444,276.788818 
	C677.869568,276.788818 676.119263,276.788818 674.579895,276.788818 
	C672.998901,275.419403 674.413391,272.797913 672.056946,272.046356 
	C670.247131,273.039703 671.376465,275.229492 670.778687,275.841461 
	C662.896667,279.235413 653.964294,274.239136 647.518799,281.153503 
	C646.313538,281.146179 645.791748,280.280243 645.240845,279.433929 
	C643.684021,277.042328 642.237671,275.377808 638.881104,277.404022 
	C636.870850,278.617523 633.934021,278.526215 631.815918,276.713959 
	C630.186401,275.319672 629.619141,273.306030 630.269409,271.248871 
	C631.098145,268.627350 632.796326,267.223206 635.835205,267.316254 
	C641.737732,267.496948 647.649719,267.369171 654.138184,267.369171 
	C653.565857,263.804993 653.013367,260.364136 652.442322,256.808044 
	C649.641113,257.695679 651.351562,260.135895 649.683716,261.392456 
	C641.110962,260.766296 632.201050,262.016754 623.364807,260.479004 
	C623.202820,260.450836 622.980469,260.539154 622.873352,260.458099 
	C615.486816,254.868530 607.417297,258.851746 599.648682,258.861877 
	C597.066345,258.865234 595.373108,258.144318 595.099976,255.474762 
	C594.787964,252.424713 594.573914,249.381302 598.635010,248.359985 
	C601.831482,247.556152 604.918762,248.920685 608.027954,248.626404 
	C620.629272,247.433716 633.252197,248.413498 645.860413,248.108643 
	C649.011719,248.032455 652.165527,248.273285 654.635803,245.055573 
	C657.285339,250.384674 661.881409,248.441681 665.685730,248.545197 
	C668.530640,248.622589 671.025452,247.901657 671.400696,251.917847 
	C671.552551,253.543625 673.359619,254.033630 674.517273,254.948730 
	C675.654236,255.847473 676.192627,257.041718 675.448730,258.465393 
	C674.882141,259.549774 673.853149,260.703461 672.758118,260.332947 
	C669.428162,259.206238 666.423157,259.040558 663.222778,260.949677 
	C662.414856,261.431641 660.568237,260.172302 658.935486,259.624817 
	C658.782715,262.793030 658.643677,265.677643 658.472961,269.217926 
	C661.856079,267.282349 664.996826,268.611023 668.133667,268.557800 
	C672.000183,268.492218 673.315369,264.998718 675.173096,262.386230 
	C677.932068,263.431213 675.171387,268.504333 679.921387,267.837463 
z"/>
<path fill="#000000" opacity="1.000000" stroke="none" 
	d="
M748.000000,418.907532 
	C790.302917,418.906586 832.105835,418.892242 873.908691,418.935364 
	C876.721558,418.938293 879.606995,419.056305 882.330688,419.679901 
	C887.309998,420.819824 890.540039,424.013641 891.309143,429.191193 
	C891.747620,432.142120 891.974182,435.151917 891.978577,438.135651 
	C892.018494,465.115906 891.988403,492.096283 891.976990,519.076599 
	C891.976501,520.242371 891.975647,521.408569 891.944702,522.573792 
	C891.651672,533.610596 887.293823,538.001587 876.330566,538.140015 
	C869.336731,538.228333 862.341003,538.164673 855.346130,538.164001 
	C799.886536,538.158813 744.426941,538.167908 688.967346,538.134705 
	C675.917969,538.126892 671.687744,533.762390 671.690063,520.697937 
	C671.695129,492.218689 671.680054,463.739441 671.657959,435.260193 
	C671.648987,423.658936 676.323975,418.920410 688.043152,418.900543 
	C707.862061,418.866943 727.681030,418.901703 748.000000,418.907532 
M813.500061,421.410400 
	C771.692444,421.411438 729.884888,421.406097 688.077271,421.418121 
	C677.915283,421.421051 674.357544,425.047333 674.360596,435.271088 
	C674.369141,464.253174 674.360535,493.235260 674.385376,522.217346 
	C674.393921,532.156738 677.945190,535.643188 687.965942,535.642639 
	C750.427307,535.639038 812.888733,535.631531 875.350098,535.619629 
	C885.726807,535.617676 889.600464,531.800110 889.606689,521.543335 
	C889.624207,492.727875 889.620605,463.912384 889.632141,435.096924 
	C889.635986,425.526428 885.601257,421.429779 875.962158,421.415894 
	C855.474854,421.386353 834.987488,421.409363 813.500061,421.410400 
z"/>
<path fill="#000000" opacity="1.000000" stroke="none" 
	d="
M689.231934,111.936707 
	C691.538391,106.619186 695.621826,104.787872 700.643982,104.785271 
	C756.277649,104.756447 811.911377,104.739334 867.544922,104.806015 
	C875.668518,104.815750 880.010925,109.058922 880.113525,117.124084 
	C880.283081,130.447021 880.252930,143.775482 880.080994,157.098694 
	C879.977539,165.116470 875.582825,169.179672 867.434082,169.254166 
	C860.771912,169.315094 854.104736,169.421280 847.447266,169.237320 
	C841.411499,169.070541 836.330627,171.262527 831.956848,175.099594 
	C825.698975,180.589508 819.679993,186.350922 813.474060,191.901413 
	C811.818787,193.381821 811.104858,194.826416 811.580811,197.118301 
	C812.518005,201.632156 810.569702,205.068634 806.513855,206.883286 
	C802.713745,208.583511 798.914612,208.054886 796.081848,204.671890 
	C793.329224,201.384659 792.917053,197.634644 795.325378,194.041046 
	C797.797058,190.352997 801.430969,188.804520 805.742737,190.415924 
	C808.144958,191.313644 809.726807,190.848480 811.528870,189.179306 
	C817.147644,183.974762 823.024902,179.046539 828.584595,173.781708 
	C834.362183,168.310608 841.157227,165.876556 848.996033,165.923828 
	C855.325317,165.961990 861.656982,166.048233 867.983765,165.921661 
	C874.197571,165.797379 876.675659,163.233902 876.702576,156.940582 
	C876.758118,143.948639 876.718811,130.956146 876.681458,117.963989 
	C876.660217,110.557281 874.317200,108.219940 866.712097,108.214226 
	C829.234314,108.186081 791.756531,108.205360 754.278748,108.201088 
	C736.789124,108.199097 719.299438,108.159790 701.809814,108.181259 
	C694.039001,108.190788 691.438171,111.104019 691.772400,118.882019 
	C691.972595,123.537964 691.913269,128.206543 691.902710,132.869308 
	C691.898743,134.639938 691.965271,136.499100 690.406860,137.898224 
	C688.441528,135.544022 687.812805,122.242722 689.231934,111.936707 
z"/>
<path fill="#000000" opacity="1.000000" stroke="none" 
	d="
M421.410614,286.930237 
	C432.985596,288.662476 444.304626,287.700867 455.599731,287.789185 
	C466.679779,287.875854 477.761841,287.713928 488.842926,287.651154 
	C490.746521,287.640350 492.605469,287.492676 492.508698,290.348541 
	C492.441559,292.330292 493.999176,293.135895 495.602905,293.805237 
	C496.987274,294.382996 497.895630,295.404083 497.169556,296.927643 
	C496.456299,298.424377 495.186890,299.108246 493.454010,298.451721 
	C487.771393,296.298737 481.593964,298.602264 476.151550,297.140564 
	C469.658966,295.396790 463.571930,299.436493 457.093842,296.856079 
	C454.538757,295.838318 450.782928,296.642822 447.598022,296.644348 
	C441.813110,296.647064 441.813354,297.151581 439.441376,292.220093 
	C437.187866,292.430908 437.378693,293.934967 437.823975,295.446259 
	C438.498291,297.735138 437.700287,299.378906 435.711517,300.463745 
	C433.750549,301.533386 431.619598,301.370667 430.129944,299.861267 
	C427.292847,296.986481 424.205139,296.096313 420.239166,296.957764 
	C416.558929,297.757111 415.960571,294.898529 415.703339,291.469879 
	C414.309296,298.968719 408.987335,297.567719 404.406128,297.658691 
	C404.244659,297.661896 404.081665,297.557281 403.919403,297.557251 
	C398.783417,297.556000 394.232971,301.690918 388.228760,296.989777 
	C384.610626,294.156860 377.580841,297.173065 372.019379,296.989838 
	C368.926727,296.887939 365.989899,298.653381 363.994598,294.876740 
	C362.084961,291.262299 363.629242,287.505524 367.628815,287.748688 
	C378.858093,288.431519 390.047699,287.013306 401.301392,287.686890 
	C406.299896,287.986115 412.183289,289.434814 416.812164,285.048431 
	C418.855042,283.112579 419.971893,285.348877 421.410614,286.930237 
z"/>
<path fill="#000000" opacity="1.000000" stroke="none" 
	d="
M696.687134,376.041656 
	C691.286804,376.777130 686.400085,374.705383 681.363708,375.854095 
	C679.348267,376.313782 676.840149,375.803925 679.234985,372.525421 
	C680.175537,371.237732 678.936096,370.573700 677.690979,370.285858 
	C676.028748,371.868591 678.360107,376.050354 674.904053,375.792908 
	C671.279907,375.522949 666.630127,377.199951 664.027588,372.085632 
	C662.166687,375.138824 660.027954,377.666931 657.696472,372.587769 
	C656.447815,373.442566 656.813721,375.332733 655.107666,375.656158 
	C652.740662,375.561340 653.287537,373.393707 652.652222,371.804138 
	C650.579407,377.841278 645.549927,375.128418 641.864563,375.224854 
	C638.302551,375.318085 634.572327,375.992462 630.854492,373.983948 
	C629.177917,373.078217 626.395691,376.188232 623.561829,375.815918 
	C616.040222,374.827637 608.518921,375.469849 600.997131,375.978210 
	C598.428833,376.151733 595.197205,377.225769 593.841309,374.161865 
	C592.412354,370.932922 593.201172,367.291595 593.810181,363.882568 
	C594.066040,362.450226 595.586609,362.649750 596.759521,362.850555 
	C600.062012,363.416046 603.922913,361.680206 606.473816,365.546417 
	C606.997253,366.339752 608.950684,366.401398 610.253723,366.432220 
	C616.314575,366.575806 616.315674,366.529510 619.222900,371.239380 
	C621.374512,369.871033 621.028503,366.080872 624.418335,365.922150 
	C627.892517,365.759521 628.421387,368.781555 630.205627,371.176453 
	C632.545227,366.669159 636.025513,365.791504 640.645325,366.321716 
	C645.631042,366.893921 650.750671,366.590973 655.789062,366.289154 
	C658.247864,366.141846 659.441650,367.269806 660.495544,369.245300 
	C661.504456,366.816254 662.993774,366.213409 665.599731,366.256592 
	C673.785645,366.392120 681.991455,366.177612 690.166870,365.705048 
	C693.852112,365.492065 697.288879,363.453003 701.092407,363.413818 
	C702.819153,364.243958 701.517151,366.309814 703.013611,367.630493 
	C706.100403,364.342621 709.988953,367.773712 713.642700,366.525238 
	C715.463684,365.903015 718.106384,365.342682 719.396851,367.951843 
	C720.599976,370.384521 720.974976,372.882538 719.305115,375.276123 
	C715.854248,374.888092 717.828979,371.801880 716.204834,370.352295 
	C714.473572,371.485901 715.954712,373.883728 714.498596,375.037994 
	C708.692688,374.751587 702.921814,375.553680 696.687134,376.041656 
z"/>
<path fill="#000000" opacity="1.000000" stroke="none" 
	d="
M266.409149,109.674408 
	C265.222473,109.150154 264.131042,109.091263 263.524384,107.029297 
	C270.435089,107.532722 273.847412,103.728363 274.566406,96.867767 
	C276.916992,98.214729 276.024292,101.502350 278.660095,101.411636 
	C280.582153,101.345497 282.023163,100.065552 283.627869,99.220131 
	C311.474976,84.549675 345.544830,98.088020 355.280396,127.875786 
	C359.701141,141.401947 357.779938,154.487640 351.187531,166.929535 
	C349.978455,169.211456 349.099579,171.072495 352.404755,172.611298 
	C349.562103,174.500122 346.021179,175.044159 346.294891,179.577179 
	C342.985138,177.757950 341.174713,179.711166 339.101532,181.342316 
	C316.148743,199.401382 286.347961,195.876999 268.154877,173.005188 
	C255.461456,157.047394 254.382874,133.565323 265.498077,116.393776 
	C266.763611,114.438690 269.218231,112.563400 266.409149,109.674408 
M301.517761,189.005966 
	C315.606506,191.036392 327.684631,186.633621 338.483124,177.731064 
	C340.828064,175.797821 339.808716,174.160538 339.165314,173.164993 
	C343.076630,169.078079 347.326355,165.810913 350.006622,161.555267 
	C353.795593,155.539246 354.647125,148.186066 354.333527,141.294220 
	C353.109497,114.392799 330.078339,94.293144 303.234070,96.516357 
	C295.532745,97.154175 287.976624,99.130409 282.289124,104.645157 
	C282.933502,107.312408 285.838074,105.810310 286.203339,108.265617 
	C283.919952,110.049088 280.510742,109.106293 278.203857,111.506699 
	C275.860565,113.945030 277.383606,117.538422 275.319733,119.942726 
	C273.217987,118.489883 274.549164,115.624481 272.233002,114.639320 
	C270.245361,114.562218 269.387573,116.165779 268.550476,117.516380 
	C261.133362,129.483521 259.174622,142.471512 263.109894,155.844894 
	C268.608734,174.531815 281.629059,185.265366 301.517761,189.005966 
z"/>
<path fill="#000000" opacity="1.000000" stroke="none" 
	d="
M551.960083,393.130005 
	C547.516174,396.295319 541.560059,395.671722 539.609070,392.033691 
	C538.877930,393.117004 539.369385,395.056335 537.407166,395.133728 
	C535.216553,394.454102 536.434753,392.199310 534.940491,390.121002 
	C535.649170,395.351196 532.632751,395.199646 529.463928,395.552155 
	C522.495544,396.327332 515.746094,395.993011 508.785187,393.569885 
	C504.978607,396.727417 479.579926,396.588562 476.892792,393.390381 
	C472.952667,395.044037 468.911957,395.672455 465.075378,394.653687 
	C462.491638,393.967590 462.410370,390.997650 463.209045,388.641815 
	C464.081512,386.068237 466.138794,385.397980 468.791107,385.583466 
	C473.836334,385.936310 478.919678,386.533508 483.943054,385.491791 
	C487.056183,384.846161 488.710876,386.204895 489.499329,388.984985 
	C489.790955,390.013245 488.996948,391.340607 490.927826,392.431732 
	C492.055450,388.763489 492.831451,384.921051 497.889313,384.454620 
	C500.037659,384.256500 501.539490,384.011169 503.727905,384.929413 
	C508.905731,387.101990 514.534058,385.247528 519.975464,385.534424 
	C524.567993,385.776520 529.186584,384.930817 533.851746,385.387543 
	C536.087830,385.606476 538.628601,386.219574 540.371704,383.215942 
	C541.436707,381.380890 544.966492,382.446136 545.817627,383.145569 
	C552.667053,388.773804 560.184570,384.558105 567.320129,385.104065 
	C569.419128,385.264679 569.885925,382.571411 572.448608,382.210602 
	C574.703247,385.984070 574.493591,390.114441 573.465942,394.258057 
	C573.109314,395.696136 571.533508,396.104767 570.174194,396.037872 
	C565.110413,395.788635 560.050110,395.453064 554.993286,395.085052 
	C552.335876,394.891663 553.540466,392.193481 552.212830,390.549774 
	C552.131897,391.572205 552.082214,392.199951 551.960083,393.130005 
z"/>
<path fill="#000000" opacity="1.000000" stroke="none" 
	d="
M540.178772,346.530579 
	C543.819763,346.519165 547.502991,347.635162 549.453613,343.460907 
	C549.677124,342.982788 551.002197,342.632050 551.653198,342.812195 
	C553.788391,343.403076 552.194092,345.425568 552.991577,347.098358 
	C563.518860,345.615265 574.132874,346.996704 584.760193,346.763000 
	C587.970642,346.692352 589.679993,344.012543 592.943909,343.885864 
	C595.930359,343.769928 597.260925,344.153290 597.705322,347.284241 
	C601.943176,345.966217 606.012573,347.363068 610.082275,346.286957 
	C612.554077,345.633423 614.638794,347.163147 615.452942,349.711975 
	C616.302551,352.371887 615.880188,354.765381 613.871277,356.624176 
	C611.063477,355.676575 612.210388,353.601593 611.415161,351.506165 
	C610.369873,358.157959 605.256104,356.495056 601.752380,356.451904 
	C593.818237,356.354126 585.856689,356.629761 577.956970,356.200928 
	C569.537415,355.743927 561.004944,357.449768 552.675659,354.965546 
	C551.017761,354.471039 549.244995,355.556915 547.657532,355.854218 
	C543.190063,356.690796 542.794861,354.664459 542.990723,350.966370 
	C542.014099,354.677826 540.982727,358.136475 536.299988,356.425262 
	C533.266663,355.316803 532.968689,349.302307 535.520813,343.840942 
	C538.025940,342.978119 538.068054,346.149628 540.178772,346.530579 
z"/>
<path fill="#000000" opacity="1.000000" stroke="none" 
	d="
M757.949463,258.506409 
	C756.804810,259.118011 756.011597,259.715210 755.182373,260.257294 
	C750.899170,263.057220 748.300842,262.064606 747.010559,257.566162 
	C738.549927,257.414368 730.317871,259.289429 721.896545,258.330536 
	C719.138550,258.016479 717.674438,256.941956 717.098938,253.855026 
	C716.094482,257.949615 713.228333,258.695038 710.304810,257.773193 
	C706.924622,256.707367 708.422485,253.687790 708.754944,251.338837 
	C709.025879,249.424652 709.475464,247.535767 709.902161,245.346664 
	C712.968384,246.121445 715.065857,248.891693 718.271484,248.250793 
	C721.838257,247.537704 725.212097,246.122757 729.072693,248.244568 
	C730.484070,249.020279 733.414124,248.102356 735.443115,246.378220 
	C738.868225,243.467697 745.223755,245.059967 747.326416,249.167953 
	C756.245178,246.325272 765.920349,251.129822 775.158997,246.691528 
	C780.882385,248.763336 773.678345,254.354614 778.333496,257.116974 
	C773.538025,258.718353 773.431152,255.559952 772.602112,253.111038 
	C771.707581,254.450668 772.894653,256.900116 770.404480,257.221130 
	C768.158997,256.711884 769.513367,254.168915 768.009460,253.149902 
	C766.288391,254.058914 767.419922,256.370178 765.504944,257.627869 
	C763.302307,256.975708 760.945435,258.791626 757.949463,258.506409 
z"/>
<path fill="#000000" opacity="1.000000" stroke="none" 
	d="
M382.597534,225.736221 
	C386.375427,229.248230 386.375427,229.248230 391.970978,225.319519 
	C395.405273,227.895065 398.848511,229.460953 402.950531,225.902786 
	C405.158661,223.987457 406.422577,227.837189 408.063690,227.844635 
	C410.174561,228.014511 410.129700,225.736832 412.140900,225.743942 
	C415.499512,230.225540 419.044312,228.676590 422.346985,224.994827 
	C425.033051,225.706207 426.164429,228.420288 428.913818,228.896286 
	C428.455292,231.839417 427.859589,234.618851 429.977295,237.277908 
	C422.734741,238.865005 416.048676,237.387329 409.547485,238.388580 
	C398.851837,240.035828 388.127228,238.025482 377.430206,238.952179 
	C374.303833,239.223007 370.351868,239.175110 370.638214,234.627365 
	C371.105164,227.211517 373.507050,224.970917 378.798584,225.621078 
	C379.936829,225.760910 381.104004,225.664993 382.597534,225.736221 
z"/>
<path fill="#000000" opacity="1.000000" stroke="none" 
	d="
M536.050964,263.980469 
	C534.628052,263.130127 533.871582,261.935547 534.231750,260.239014 
	C535.034668,256.456696 535.124268,252.685226 534.612488,248.833344 
	C534.357605,246.914764 535.225220,244.513474 537.635498,245.995819 
	C544.000854,249.910507 550.133362,248.796509 556.511597,246.228058 
	C560.196228,249.850876 564.567627,248.789536 569.274231,245.382828 
	C571.705811,248.345947 574.472717,250.263000 577.853027,246.037369 
	C579.975952,247.449539 581.929321,248.882721 584.681519,248.299881 
	C586.256531,247.966309 588.256042,248.435577 587.798462,250.941879 
	C587.487671,252.644104 588.393311,253.426254 589.678040,254.004700 
	C591.366638,254.764999 593.406067,255.344528 592.389526,257.846283 
	C591.457031,260.141266 589.346130,261.454224 587.157593,260.518280 
	C582.997559,258.739166 578.736389,258.090729 574.304199,257.744690 
	C571.976624,257.562988 572.024658,255.246536 571.475647,252.040527 
	C570.540771,255.763168 569.638245,258.006073 567.768555,259.808533 
	C564.352478,263.101898 560.463928,263.481445 556.826477,260.421661 
	C555.647095,259.429626 554.193970,257.915741 552.970825,258.696960 
	C548.899536,261.297272 544.658447,259.720215 540.643127,259.355042 
	C536.914673,259.015900 536.385742,260.715637 536.079224,263.728455 
	C536.010925,264.000580 536.050964,263.980469 536.050964,263.980469 
z"/>
<path fill="#000000" opacity="1.000000" stroke="none" 
	d="
M118.571259,228.301849 
	C120.410797,227.777847 120.389137,225.564621 122.408073,225.356461 
	C127.672638,231.556946 134.879883,227.949326 141.297272,228.534424 
	C146.866806,229.042236 152.535202,228.390411 158.159592,228.402298 
	C161.121674,228.408539 162.191559,230.535889 162.219589,233.085190 
	C162.252899,236.113708 161.389450,239.515549 157.713135,238.858521 
	C150.262131,237.526886 142.825989,239.651382 135.546219,238.467331 
	C131.635101,237.831192 128.011429,238.682236 124.350655,238.953033 
	C118.672264,239.373108 113.221451,237.960495 107.687790,237.592865 
	C105.485420,237.446548 103.798813,238.681427 101.454887,238.519058 
	C100.477455,234.442032 98.667427,230.750793 99.213341,226.598343 
	C105.968597,225.474808 112.127869,226.647385 118.571259,228.301849 
z"/>
<path fill="#000000" opacity="1.000000" stroke="none" 
	d="
M535.992676,264.013397 
	C536.888489,264.358795 538.151733,264.417206 538.661865,265.066956 
	C543.123779,270.750000 548.197937,268.013153 553.286926,266.384705 
	C557.198425,265.133026 561.253113,262.724884 564.790527,267.350769 
	C565.891907,268.791016 567.554199,268.690216 569.350037,268.326538 
	C573.189331,267.548981 577.077942,267.526123 581.046204,268.361084 
	C577.354492,277.354126 577.310852,276.597473 567.438721,277.166718 
	C559.662292,277.615112 551.934753,278.035278 544.263794,277.074554 
	C538.588928,276.363800 533.019958,277.447723 527.378174,277.066986 
	C524.875244,276.898102 523.663879,276.502289 523.256470,274.116302 
	C523.006958,272.654968 522.705200,271.202576 522.447388,269.742523 
	C521.618103,265.046509 523.156189,263.491119 527.601562,264.934998 
	C530.428528,265.853210 532.992432,266.181152 535.778809,264.157593 
	C536.050964,263.980469 536.010925,264.000580 535.992676,264.013397 
z"/>
<path fill="#000000" opacity="1.000000" stroke="none" 
	d="
M670.904297,288.729126 
	C672.281372,290.135498 674.132874,291.388977 675.094971,290.500732 
	C678.567688,287.294708 682.582397,288.406647 686.520630,288.169556 
	C688.774414,288.033875 691.307007,286.492218 692.970520,288.716034 
	C694.701721,291.030273 694.830078,293.864746 693.351318,296.464264 
	C690.826355,296.514526 691.507141,294.208313 690.173706,293.087158 
	C689.607849,294.434906 689.083191,295.684692 688.334900,297.467010 
	C685.133301,294.243317 681.164673,299.027618 677.912415,295.764740 
	C675.682922,293.528015 673.279785,293.343597 671.002991,295.890167 
	C670.211670,296.775330 669.091675,297.783630 668.003357,297.359222 
	C664.693542,296.068451 662.341736,296.987854 660.325439,299.742279 
	C659.980408,300.213623 658.391602,300.484772 658.083374,300.165924 
	C653.595093,295.522919 647.856445,297.627014 642.634583,297.269470 
	C638.029541,296.954224 633.390198,297.131317 628.765869,297.111511 
	C626.398560,297.101379 624.477356,296.002411 625.061584,293.624603 
	C625.604248,291.415741 624.827881,287.299591 628.864319,287.836914 
	C632.184204,288.278900 633.240723,286.604950 634.373840,283.379608 
	C638.339417,289.561890 643.936035,287.720459 649.131836,287.811127 
	C656.296692,287.936157 663.458557,288.236115 670.904297,288.729126 
z"/>
<path fill="#000000" opacity="1.000000" stroke="none" 
	d="
M275.826324,425.507874 
	C283.273468,424.344788 290.535522,425.057983 297.742218,424.760559 
	C299.577209,424.684814 301.417938,424.849884 302.951752,423.977051 
	C306.031036,422.224701 308.689636,421.268860 311.779572,424.247742 
	C314.675018,427.039062 314.377777,430.060852 313.714172,434.056580 
	C308.293365,432.742767 302.328217,437.591522 297.347382,431.150848 
	C296.012146,435.378632 292.299866,435.255798 289.304321,434.910126 
	C281.684113,434.030823 274.096222,434.864410 266.502869,434.613251 
	C263.615082,434.517761 260.965576,433.015289 257.811005,433.882294 
	C256.075317,434.359283 255.992905,431.885895 256.006927,430.454529 
	C256.027496,428.358368 255.595764,425.548737 258.442810,425.151459 
	C264.114166,424.360046 269.863251,423.677765 275.826324,425.507874 
z"/>
<path fill="#000000" opacity="1.000000" stroke="none" 
	d="
M662.281738,347.393494 
	C663.455322,347.127502 664.363525,346.558228 665.041870,346.760376 
	C669.904480,348.208923 674.054932,347.321564 677.534973,341.713562 
	C679.025574,347.467010 678.354675,351.696198 678.563965,356.181885 
	C673.119446,356.571747 667.831116,357.333710 662.725830,355.890442 
	C660.146301,355.161194 657.959167,356.380615 655.465759,356.184723 
	C651.442993,355.868683 648.643555,355.191162 648.270752,350.538818 
	C645.751831,351.801514 647.566101,354.385193 645.518250,355.722076 
	C642.582825,355.405884 639.170593,355.477631 635.921814,355.356537 
	C632.769836,355.239075 628.968262,354.109680 625.604736,355.751312 
	C623.414856,356.820129 621.327087,356.303955 619.792786,354.386597 
	C618.420654,352.671814 618.348450,350.695251 619.313110,348.755188 
	C620.486145,346.396088 622.513062,345.933289 624.803284,346.752014 
	C631.371338,349.100098 637.943604,345.719818 644.537354,346.872406 
	C647.316162,347.358124 649.506958,345.849243 650.531006,343.278259 
	C653.016479,343.753143 652.089355,346.396118 654.112305,347.277374 
	C656.488831,346.315338 659.223267,346.276398 662.281738,347.393494 
z"/>
<path fill="#000000" opacity="1.000000" stroke="none" 
	d="
M219.398010,149.008484 
	C219.452728,156.655060 219.412857,163.806366 219.614548,170.950867 
	C219.691299,173.669754 219.090866,176.023148 216.139786,175.804184 
	C212.630859,175.543823 209.225540,176.064117 205.780182,176.074478 
	C204.042145,176.079727 202.156693,175.388092 200.588470,174.545288 
	C195.719940,171.928818 193.400955,164.585190 194.880341,157.166260 
	C196.089783,151.101151 199.914307,147.143921 205.884232,146.684464 
	C210.852020,146.302139 213.740234,144.672516 213.212509,139.127960 
	C213.018417,137.088821 213.548401,134.953003 216.298950,134.918274 
	C219.573013,134.876892 219.286301,137.389694 219.333984,139.531494 
	C219.400589,142.523514 219.381866,145.517410 219.398010,149.008484 
M201.319656,164.271652 
	C201.654877,165.030151 201.936172,165.818420 202.335175,166.541733 
	C203.679718,168.979156 205.290543,171.176804 208.546082,170.290558 
	C211.699371,169.432175 213.037872,167.106873 213.030853,163.920639 
	C213.026825,162.094467 213.027161,160.268021 213.054611,158.442139 
	C213.098312,155.535187 212.324707,153.113983 209.140640,152.345078 
	C205.831924,151.546051 203.637207,153.217865 202.346405,156.024231 
	C201.264038,158.377396 199.726028,160.770950 201.319656,164.271652 
z"/>
<path fill="#000000" opacity="1.000000" stroke="none" 
	d="
M118.974106,143.171753 
	C121.845108,151.543884 124.698380,159.507080 127.242546,167.567856 
	C128.064484,170.171997 131.819870,173.769302 127.250008,175.561874 
	C122.963417,177.243347 122.479889,172.606781 121.606033,169.777390 
	C120.362686,165.751663 117.648903,164.336868 113.727280,164.447006 
	C110.244461,164.544830 107.684723,165.774185 106.621918,169.427109 
	C106.120323,171.151062 105.325844,172.854279 104.340347,174.354187 
	C103.419365,175.755875 101.799950,175.839874 100.290840,175.279678 
	C98.596077,174.650574 98.797089,173.248734 99.247704,171.944046 
	C102.819939,161.601089 106.415344,151.266068 110.034706,140.939514 
	C110.690918,139.067245 111.922188,137.942993 114.091789,137.906326 
	C117.500893,137.848709 117.860321,140.588120 118.974106,143.171753 
M111.388306,155.675919 
	C111.408661,157.353638 111.923660,158.621689 113.907524,158.555847 
	C114.821815,158.525513 115.540428,157.990021 115.700851,157.133820 
	C116.104843,154.977692 116.175636,152.872070 113.700836,151.836929 
	C112.079391,152.378525 111.863350,153.742477 111.388306,155.675919 
z"/>
<path fill="#000000" opacity="1.000000" stroke="none" 
	d="
M357.593506,425.069733 
	C359.706818,425.466156 360.299469,423.571533 361.631226,423.001373 
	C365.778870,424.571899 363.849640,427.920105 363.808472,430.325562 
	C364.598145,431.781250 365.615936,431.533966 366.608307,431.399475 
	C368.121887,431.194336 369.257843,431.678558 369.665375,433.251007 
	C369.952637,434.359314 369.331940,435.180969 368.565063,435.860382 
	C367.425842,436.869690 366.240967,437.040527 365.004761,435.953461 
	C360.567657,432.051697 355.185150,435.052734 350.325470,434.030975 
	C348.471313,433.641113 346.329651,434.707520 344.436249,434.396515 
	C340.954681,433.824646 338.215546,434.667847 336.332489,437.372131 
	C333.934113,437.274994 334.476685,434.952240 332.960876,434.032867 
	C329.235779,435.788147 325.191467,433.658844 321.043640,434.383026 
	C318.771271,434.779785 316.408081,432.030426 317.040039,429.161530 
	C317.693848,426.193665 319.949249,424.587738 323.255402,424.594879 
	C330.343994,424.610260 337.499878,426.206635 344.316498,422.159088 
	C347.047058,420.537781 350.715820,420.880646 350.938538,425.733734 
	C353.302887,426.130188 355.089081,423.602112 357.593506,425.069733 
z"/>
<path fill="#000000" opacity="1.000000" stroke="none" 
	d="
M754.000000,157.976288 
	C788.617065,157.986542 822.734192,158.003983 856.851257,158.002869 
	C865.469238,158.002579 867.198486,156.227036 867.619934,147.521881 
	C867.765137,144.523956 866.835205,141.341553 869.106506,138.552460 
	C870.695679,144.364243 871.444336,150.360260 869.166260,156.000580 
	C867.116455,161.075348 862.154724,161.333496 857.266846,161.327179 
	C815.827209,161.273560 774.387390,161.319107 732.947632,161.286316 
	C731.067627,161.284836 728.951843,161.974854 727.336609,160.239395 
	C729.344910,157.979950 729.344910,157.981171 740.019409,157.983521 
	C744.512939,157.984497 749.006470,157.979080 754.000000,157.976288 
z"/>
<path fill="#000000" opacity="1.000000" stroke="none" 
	d="
M442.958679,356.536774 
	C438.401550,353.775360 437.694275,348.476868 440.999969,344.605072 
	C446.604065,347.782135 450.045319,347.441803 455.119690,343.008057 
	C457.887390,345.910583 460.837006,347.911560 465.426849,346.406769 
	C469.043365,345.221100 468.408813,349.247070 469.219055,352.421234 
	C473.879974,344.349060 480.366028,346.687836 486.877563,346.448761 
	C486.118500,349.957336 484.177765,352.200226 484.227295,355.132111 
	C484.255157,356.782379 482.712067,356.956299 481.205200,356.684113 
	C477.873169,356.082245 474.489807,356.834412 471.125305,354.946350 
	C468.887817,353.690735 466.102356,356.318787 463.183502,356.452423 
	C456.551361,356.756104 449.940002,356.284210 442.958679,356.536774 
z"/>
<path fill="#000000" opacity="1.000000" stroke="none" 
	d="
M189.393784,162.186890 
	C189.394928,162.810989 189.395630,162.977142 189.395386,163.143311 
	C189.376434,176.023254 189.376633,176.103897 176.495224,176.134811 
	C172.160736,176.145218 168.612701,174.342514 167.536209,169.741547 
	C166.504456,165.331863 168.154633,161.844254 172.229370,159.809021 
	C174.291412,158.779099 176.586761,158.222214 178.759842,157.406662 
	C180.198044,156.866913 181.778564,156.146866 181.357590,154.308456 
	C180.893738,152.282776 179.045151,152.077179 177.333588,152.354004 
	C175.871078,152.590515 174.441803,153.099564 173.034424,153.592514 
	C171.362564,154.178055 170.070526,153.837585 169.288361,152.213425 
	C168.397995,150.364655 169.632172,149.420425 171.009689,148.683014 
	C175.269867,146.402481 180.052643,145.180603 184.378296,147.197144 
	C188.849045,149.281326 189.959610,153.891403 189.408600,158.739929 
	C189.296753,159.724136 189.392731,160.731995 189.393784,162.186890 
M175.209152,169.120697 
	C177.938889,171.051285 180.185593,170.026474 182.129807,167.868881 
	C183.081619,166.812607 183.072540,165.432022 182.628586,164.131332 
	C182.197189,162.867401 181.103027,162.201813 179.912796,162.562195 
	C176.976349,163.451309 173.422195,163.996094 175.209152,169.120697 
z"/>
<path fill="#000000" opacity="1.000000" stroke="none" 
	d="
M132.842957,395.706360 
	C130.263351,393.974945 128.018936,395.591644 125.874268,395.460144 
	C118.692978,395.019867 111.596260,395.147400 104.437973,395.953461 
	C100.572876,396.388733 98.405060,393.172760 99.253387,389.354248 
	C100.231316,384.952454 108.933380,380.964355 112.704704,383.406494 
	C116.203239,385.671997 120.086227,384.971008 123.799614,385.307770 
	C127.232895,385.619080 130.730347,385.159821 134.199356,385.164673 
	C136.158218,385.167389 142.332886,391.890656 142.077347,393.715851 
	C141.859695,395.270508 140.632599,395.942505 139.202591,395.977142 
	C137.212357,396.025360 135.217377,395.878387 132.842957,395.706360 
z"/>
<path fill="#000000" opacity="1.000000" stroke="none" 
	d="
M771.251343,267.603638 
	C772.905701,266.938080 772.735291,264.504486 774.902405,264.932465 
	C776.900208,265.798706 775.690125,267.934906 776.524170,269.281494 
	C780.997070,267.867432 786.958496,271.145813 788.476929,275.875183 
	C788.806396,276.901337 788.571899,277.862976 787.884033,278.674225 
	C786.994995,279.722626 786.045776,279.737915 784.807617,279.070312 
	C780.268372,276.622681 775.385010,277.361786 770.490784,277.370148 
	C766.790039,277.376495 763.118042,276.907410 759.363525,277.364166 
	C755.669006,277.813660 756.560181,273.957703 755.147156,271.907349 
	C752.700500,272.770935 753.894043,275.550079 752.477966,276.865417 
	C751.080566,277.065125 749.653320,277.312347 748.216187,277.467010 
	C741.991638,278.137024 740.270508,275.869659 742.524719,269.983978 
	C743.221741,268.164154 744.862793,267.023773 746.415710,267.904541 
	C750.097229,269.992523 753.098206,267.983795 756.176758,266.781891 
	C758.517761,265.867920 761.695618,267.655884 762.893127,264.417023 
	C765.228882,265.177826 763.876343,267.360260 765.213135,268.442566 
	C767.129639,269.035950 768.923340,267.482452 771.251343,267.603638 
z"/>
<path fill="#000000" opacity="1.000000" stroke="none" 
	d="
M767.000183,166.091782 
	C787.831116,166.282623 808.162048,166.473541 829.328491,166.672318 
	C827.532349,169.886459 825.559875,169.321930 823.927002,169.323227 
	C778.497559,169.359299 733.068054,169.342636 687.638611,169.383896 
	C683.651550,169.387512 680.303589,168.370865 678.694153,164.441452 
	C677.321960,161.091339 676.941772,157.647522 678.875793,154.140472 
	C681.662354,155.701202 681.120789,157.919449 681.155579,159.794144 
	C681.236389,164.144547 683.574036,166.136749 687.648010,166.446167 
	C689.635437,166.597107 691.637146,166.621033 693.631775,166.607758 
	C717.921326,166.446030 742.210754,166.266647 767.000183,166.091782 
z"/>
<path fill="#000000" opacity="1.000000" stroke="none" 
	d="
M614.012695,385.758911 
	C617.418518,387.511292 615.548950,392.640228 619.784119,393.107574 
	C619.634521,395.631958 618.148132,395.591858 616.570435,395.546997 
	C608.809265,395.326202 601.046753,395.148315 593.285278,394.937286 
	C590.255432,394.854889 588.058228,396.540863 586.065735,398.779602 
	C584.046082,397.241211 582.713867,395.707916 580.019348,395.680023 
	C575.367798,395.631927 578.083374,391.311615 577.344910,389.047791 
	C576.628052,386.850128 578.873047,385.344025 581.013000,385.367371 
	C587.491211,385.438019 593.959717,385.597748 600.436401,386.276550 
	C604.779114,386.731689 609.257080,385.895325 614.012695,385.758911 
z"/>
<path fill="#000000" opacity="1.000000" stroke="none" 
	d="
M588.675903,278.772827 
	C587.575256,280.376953 586.487061,281.273743 583.861145,280.023346 
	C588.230774,276.067627 583.292725,272.221680 583.341797,268.999390 
	C592.903931,266.550140 602.535950,270.853577 611.644836,264.936829 
	C613.872253,268.486755 618.051514,268.229645 622.368835,267.587036 
	C624.306396,267.298676 625.697510,268.315979 626.123291,270.105743 
	C626.660339,272.363708 626.948425,274.921326 625.386292,276.774933 
	C624.054260,278.355530 621.705383,278.082947 620.442993,276.668671 
	C618.232605,274.192444 616.572327,275.362061 615.043518,277.051819 
	C612.141724,275.651398 613.880493,272.420593 611.524902,270.543549 
	C608.059448,272.004456 609.324768,280.037445 602.827393,277.616455 
	C598.952454,276.172638 594.046265,279.858795 591.139404,275.096436 
	C589.223389,275.760529 589.435852,277.360413 588.675903,278.772827 
z"/>
<path fill="#000000" opacity="1.000000" stroke="none" 
	d="
M788.077637,101.043488 
	C772.953186,101.312401 758.148010,101.363510 743.342773,101.382225 
	C725.524170,101.404739 707.705627,101.392441 689.887024,101.410149 
	C682.742615,101.417252 681.161682,102.997406 681.133179,110.272591 
	C681.093384,120.430557 681.154907,130.589081 681.077698,140.746628 
	C681.062256,142.784302 681.775391,145.133408 679.549438,146.681396 
	C677.223816,146.020386 677.750305,144.078445 677.741516,142.569077 
	C677.673950,130.912415 677.621277,119.254700 677.712708,107.598488 
	C677.759949,101.579895 680.662842,98.719223 686.651428,98.711090 
	C719.291138,98.666748 751.930908,98.667404 784.570435,98.732910 
	C786.007507,98.735794 788.502686,97.621811 788.077637,101.043488 
z"/>
<path fill="#000000" opacity="1.000000" stroke="none" 
	d="
M167.964813,141.808136 
	C167.267395,142.555878 166.752579,143.088623 166.160187,143.196838 
	C157.470291,144.784271 157.392380,144.845032 157.368973,153.510727 
	C157.352829,159.488724 157.378006,165.466812 157.379257,171.444870 
	C157.379700,173.562180 157.167847,175.635391 154.357269,175.602615 
	C151.675217,175.571350 151.115463,173.521698 151.136658,171.435562 
	C151.202423,164.964188 151.320572,158.489883 151.610550,152.025360 
	C151.832626,147.074860 150.013229,144.021164 144.795425,143.528152 
	C142.799713,143.339600 140.500275,143.283493 140.873672,140.316223 
	C141.188705,137.812683 143.301575,137.916718 145.107040,137.896957 
	C151.416641,137.827911 157.727081,137.825424 164.037216,137.820312 
	C166.416489,137.818375 168.449081,138.272675 167.964813,141.808136 
z"/>
<path fill="#000000" opacity="1.000000" stroke="none" 
	d="
M579.873779,366.067566 
	C581.379272,366.142578 582.543701,366.390594 583.675842,366.286560 
	C588.682983,365.826416 591.236267,369.034027 589.309509,373.738159 
	C588.122437,376.636353 585.762756,376.253510 583.526245,375.013855 
	C582.031311,374.185211 581.429016,372.546051 580.039917,369.967438 
	C580.488037,375.834473 577.315002,375.868042 573.739685,376.076385 
	C568.450623,376.384613 563.212036,376.673767 557.912476,376.106995 
	C555.325317,375.830383 553.761536,375.124573 553.958740,372.294922 
	C554.149536,369.556091 553.584778,366.366608 557.745300,365.959442 
	C562.775574,365.467163 567.707214,366.975922 572.841553,366.424316 
	C574.893799,366.203796 577.280823,365.961426 579.873779,366.067566 
z"/>
<path fill="#000000" opacity="1.000000" stroke="none" 
	d="
M214.264343,238.508057 
	C209.904816,236.765121 206.009232,239.922104 201.715027,238.493408 
	C198.941574,237.570709 197.416595,236.746002 196.944382,233.887787 
	C196.545303,231.472260 195.793976,229.114914 195.155014,226.557602 
	C198.077545,224.570404 201.155991,224.648224 204.004303,226.358307 
	C208.973419,229.341675 213.583023,230.023590 217.641403,225.210999 
	C220.394699,225.922821 219.907730,228.011261 220.002914,229.726364 
	C220.107483,231.610214 220.088791,233.403320 222.461639,234.012131 
	C224.826355,234.618851 224.420837,236.406006 223.807587,238.002960 
	C223.132355,239.761383 221.819061,240.743225 219.881668,239.845703 
	C218.186417,239.060379 216.443726,238.647842 214.264343,238.508057 
z"/>
<path fill="#000000" opacity="1.000000" stroke="none" 
	d="
M249.908539,238.598175 
	C244.636063,237.575897 239.352829,240.159805 234.743271,236.909286 
	C232.959198,235.651215 232.307190,238.347595 230.115341,237.769089 
	C229.025665,234.262436 227.829941,230.414597 226.498672,226.130524 
	C237.486847,227.363037 247.481644,229.841980 257.860657,228.538284 
	C256.528961,238.571823 256.136383,239.066895 249.908539,238.598175 
z"/>
<path fill="#000000" opacity="1.000000" stroke="none" 
	d="
M474.740173,277.602173 
	C472.191589,275.825806 466.630035,279.521729 467.420471,273.098145 
	C466.975037,274.322906 466.795258,275.762268 466.020660,276.721130 
	C464.911835,278.093811 462.689026,278.234009 462.784149,276.261444 
	C462.972748,272.350861 461.700836,268.024506 465.203979,263.579803 
	C468.794220,271.408783 475.292419,267.446655 480.655640,268.210205 
	C482.744080,268.507568 484.964447,268.141144 487.090881,267.838959 
	C489.525940,267.492981 491.876831,267.252441 493.030792,269.999939 
	C493.974030,272.245667 493.991272,274.820740 492.557312,276.674591 
	C490.950684,278.751709 488.780731,277.292358 486.660736,276.751038 
	C482.795532,275.764160 479.072083,278.680298 474.740173,277.602173 
z"/>
<path fill="#000000" opacity="1.000000" stroke="none" 
	d="
M886.706909,119.014481 
	C886.698181,115.521088 886.721924,112.523788 886.675598,109.527565 
	C886.582458,103.497009 884.446655,101.435577 877.955933,101.417336 
	C859.475647,101.365379 840.995239,101.400543 822.514832,101.370911 
	C820.790466,101.368141 818.915222,101.896538 817.363342,100.584442 
	C817.848755,98.154770 819.657166,98.732323 820.968018,98.729607 
	C841.113220,98.687866 861.258484,98.678230 881.403625,98.731781 
	C886.053345,98.744148 889.274963,101.200417 889.617310,105.800156 
	C890.556763,118.421104 890.098389,131.077438 889.818420,143.720078 
	C889.800049,144.549484 889.372192,145.317642 887.267700,145.996109 
	C886.152649,137.031479 886.968445,128.235214 886.706909,119.014481 
z"/>
<path fill="#000000" opacity="1.000000" stroke="none" 
	d="
M490.323425,355.032623 
	C489.977081,350.827606 489.048126,346.911469 491.043396,342.720825 
	C497.279388,348.606628 503.683716,347.864197 510.318329,344.986237 
	C513.089783,343.784058 515.505005,345.511902 514.785217,348.514313 
	C514.194153,350.979797 514.582031,353.067841 515.391663,355.202942 
	C514.351501,357.724518 511.091492,357.246185 510.249390,359.886200 
	C505.630035,355.397980 500.066376,357.149506 495.034515,356.462250 
	C493.455872,356.246643 491.722076,357.099823 490.323425,355.032623 
z"/>
<path fill="#000000" opacity="1.000000" stroke="none" 
	d="
M243.568146,434.469574 
	C238.261642,434.308136 233.074692,436.210419 228.780731,432.753418 
	C226.014252,433.651947 226.386795,438.667633 221.834457,436.922089 
	C224.773026,433.316711 222.099365,429.824860 221.478943,426.574982 
	C232.005188,422.117157 242.287628,427.002716 252.599258,425.314941 
	C250.125992,429.118408 251.551117,436.209045 243.568146,434.469574 
z"/>
<path fill="#000000" opacity="1.000000" stroke="none" 
	d="
M737.387573,368.252625 
	C738.152649,369.276917 737.813843,371.125366 739.734863,370.406403 
	C741.852173,369.613922 739.750305,369.139832 739.710754,368.507507 
	C739.552612,365.971619 741.646912,365.945679 743.166016,366.304443 
	C744.952454,366.726288 746.417480,367.193634 748.349609,366.400452 
	C750.299744,365.599854 752.810364,365.462067 754.179321,367.718811 
	C755.714661,370.249939 755.909851,372.908508 754.075562,375.377777 
	C750.903503,374.661194 753.010559,371.553864 750.768005,370.209076 
	C750.382935,376.687836 745.623291,376.042419 741.503113,375.800781 
	C737.666565,375.575745 733.873901,374.874908 730.024597,375.649658 
	C724.147583,376.832489 724.683716,372.030365 723.980103,368.794586 
	C723.320496,365.760956 724.070374,363.477295 728.168396,364.516602 
	C729.366577,364.820496 729.801392,362.344269 731.893433,362.945862 
	C732.864197,365.113464 735.602844,365.937134 737.387573,368.252625 
z"/>
<path fill="#000000" opacity="1.000000" stroke="none" 
	d="
M531.153137,364.613556 
	C536.982422,367.202301 542.776855,368.009674 547.942566,362.505219 
	C550.433350,364.050415 549.483765,366.449310 549.555237,368.614075 
	C549.625122,370.730530 549.967590,372.838013 550.205994,375.097900 
	C547.354736,376.804718 544.354492,375.934174 541.476318,376.008331 
	C538.505493,376.084900 535.531677,376.177582 532.561829,376.122040 
	C530.123718,376.076416 526.921326,378.079163 525.589783,374.500397 
	C524.220581,370.820618 524.260681,366.879883 526.632019,363.547668 
	C528.173889,361.381042 529.964478,361.798035 531.153137,364.613556 
z"/>
<path fill="#000000" opacity="1.000000" stroke="none" 
	d="
M149.519562,428.757324 
	C149.543335,426.245361 149.543335,424.132599 149.543335,422.092865 
	C150.654541,421.889404 151.361710,421.559570 151.560455,421.752808 
	C156.831268,426.875977 162.801208,424.850403 168.644806,423.384827 
	C172.658524,422.378174 174.682404,423.730438 173.560974,427.489990 
	C172.858749,429.844147 174.078110,431.610016 174.239410,434.030151 
	C167.276215,434.522186 160.464935,435.098358 153.642242,434.137451 
	C151.799316,435.161560 152.073074,439.003815 148.194275,437.678558 
	C148.623917,434.865356 149.059845,432.010956 149.519562,428.757324 
z"/>
<path fill="#000000" opacity="1.000000" stroke="none" 
	d="
M463.409302,434.226929 
	C459.908142,434.741302 457.416687,434.726959 456.263123,430.609711 
	C454.203491,423.258759 459.430908,423.124207 464.303406,422.069397 
	C465.511627,424.662415 467.741302,425.286987 470.696075,424.658630 
	C475.144287,423.712769 479.289001,426.435455 484.153595,425.321564 
	C487.685089,424.512878 487.127289,428.881836 486.773407,431.768494 
	C486.365509,435.095428 484.305847,434.851898 482.084747,434.282135 
	C480.383484,433.845673 478.928497,430.616150 477.566833,434.115784 
	C475.059021,433.437592 476.306732,431.215820 475.034454,430.263672 
	C473.373718,430.881622 474.652863,433.284943 472.609833,433.870331 
	C469.818024,433.674530 471.379150,430.734589 469.636444,428.224487 
	C471.093048,435.130005 466.408569,433.282013 463.409302,434.226929 
z"/>
<path fill="#000000" opacity="1.000000" stroke="none" 
	d="
M546.474365,297.370239 
	C543.232422,297.548859 540.522156,297.065247 540.681519,293.428040 
	C540.886047,288.758575 542.930786,287.269409 547.382385,288.207886 
	C548.731018,288.492188 549.918091,288.373108 551.249695,288.181641 
	C554.154236,287.764008 557.248962,285.380310 559.437195,286.076385 
	C562.248230,286.970551 565.052490,287.480530 567.550659,287.579712 
	C569.046448,289.326782 568.126953,290.891815 568.422913,292.317688 
	C569.274353,296.420166 567.082642,297.613190 563.427856,297.659760 
	C557.886536,297.730286 552.383179,296.151672 546.474365,297.370239 
z"/>
<path fill="#000000" opacity="1.000000" stroke="none" 
	d="
M704.491211,247.676132 
	C704.557556,251.155975 704.557556,254.273468 704.557556,257.245026 
	C696.315674,259.088287 692.843994,257.984985 690.992615,252.115509 
	C690.898438,259.740417 684.714172,258.415222 681.268738,260.781677 
	C680.986450,260.975494 679.969849,260.502838 679.583130,260.077454 
	C676.783081,256.997803 678.999268,253.777237 679.538391,250.669815 
	C679.994446,248.041092 682.313782,248.003876 684.295471,248.372726 
	C688.213196,249.101944 692.178772,247.761215 696.140503,249.054611 
	C697.952026,249.646011 699.997009,248.508606 701.271362,246.688461 
	C702.737732,244.593979 703.835449,244.776138 704.491211,247.676132 
z"/>
<path fill="#000000" opacity="1.000000" stroke="none" 
	d="
M603.980591,287.888611 
	C605.980652,289.124054 607.540833,287.385345 609.059082,287.813385 
	C611.044617,288.755676 610.352234,290.781128 611.296631,293.065460 
	C612.622681,285.801331 617.143250,287.647797 621.396790,288.234406 
	C618.564148,297.102386 616.660828,298.114258 607.639221,296.623627 
	C604.358887,296.081635 600.738586,298.431122 597.973694,295.478973 
	C594.944763,295.983154 595.256958,300.586121 591.131226,299.834564 
	C593.448792,295.937408 590.493103,292.501190 590.025757,287.792084 
	C594.836487,287.792084 599.223511,287.792084 603.980591,287.888611 
z"/>
<path fill="#000000" opacity="1.000000" stroke="none" 
	d="
M512.829590,285.239014 
	C515.916565,283.364532 518.503662,283.665161 521.274109,285.628448 
	C526.695557,289.470276 531.238464,289.821838 535.499817,284.111267 
	C538.966980,287.333038 538.548706,291.369537 537.375061,294.984131 
	C536.223450,298.530731 533.000000,297.701263 530.189270,296.815643 
	C529.727234,296.670013 529.216248,296.621429 528.728516,296.624573 
	C521.093079,296.673981 521.093079,296.677643 519.611206,289.552551 
	C518.407898,292.227692 520.395325,295.908081 516.166321,297.022186 
	C514.984314,293.164978 513.819824,289.365021 512.829590,285.239014 
z"/>
<path fill="#000000" opacity="1.000000" stroke="none" 
	d="
M396.351135,424.880951 
	C399.848572,427.356873 398.653320,430.650635 397.792358,433.232208 
	C396.939148,435.790680 394.167206,434.416107 392.080414,434.387238 
	C387.473022,434.323456 382.852081,434.408661 378.255707,434.716980 
	C375.778076,434.883118 373.995117,434.114899 372.866516,432.041504 
	C371.924286,430.310516 372.062347,428.443573 373.347504,426.906982 
	C374.761017,425.216919 376.378143,423.591980 378.854523,425.020355 
	C380.557434,426.002594 382.074432,425.137695 383.650085,424.793976 
	C385.573822,424.374268 387.367157,423.670410 389.189392,425.427979 
	C391.592041,427.745392 393.582336,423.419464 396.351135,424.880951 
z"/>
<path fill="#000000" opacity="1.000000" stroke="none" 
	d="
M110.684189,355.781860 
	C101.021202,357.657562 97.672424,354.032867 99.226143,343.437378 
	C101.873802,344.645782 104.633965,344.498474 107.305038,343.892212 
	C111.618675,342.913116 114.844238,345.746918 118.353218,347.115967 
	C121.619263,348.390289 120.727364,351.963257 119.773514,354.608459 
	C118.834030,357.213806 116.582161,357.112335 114.349037,356.169983 
	C113.276016,355.717163 112.226570,355.170013 110.684189,355.781860 
z"/>
<path fill="#000000" opacity="1.000000" stroke="none" 
	d="
M418.148865,424.787872 
	C419.911011,423.933319 420.663940,422.051788 422.836975,422.115448 
	C425.208374,425.847229 424.020294,430.047394 424.421936,434.947540 
	C417.376953,433.790924 410.584076,435.259247 403.864990,434.439087 
	C400.626892,434.043823 400.704163,426.174957 403.819031,423.128906 
	C408.301941,425.237274 412.944916,426.123444 418.148865,424.787872 
z"/>
<path fill="#000000" opacity="1.000000" stroke="none" 
	d="
M139.241669,434.230286 
	C135.671295,435.970032 132.804840,432.557343 129.374634,433.759338 
	C127.895630,434.277588 128.332596,431.427734 127.614624,429.684753 
	C127.086494,431.096588 126.880539,432.325409 126.229332,433.235748 
	C125.138222,434.761108 123.307495,434.949890 122.769623,433.117035 
	C122.099983,430.835144 121.677513,428.126434 123.377113,425.988220 
	C124.740730,424.272705 126.787079,424.112610 128.831818,424.661377 
	C133.236130,425.843506 137.412842,425.018250 141.531296,423.368225 
	C144.923889,422.009033 146.007767,424.426788 145.560486,426.760742 
	C145.094879,429.190460 145.424149,431.277374 146.139832,433.431274 
	C144.130432,435.976379 141.755753,434.032806 139.241669,434.230286 
z"/>
<path fill="#000000" opacity="1.000000" stroke="none" 
	d="
M724.152344,277.313293 
	C721.322754,278.234070 719.842407,276.567810 718.360107,275.024017 
	C717.343811,275.508179 717.515442,277.498047 715.699402,276.786804 
	C714.114197,275.756866 715.231140,273.671906 714.123779,272.216797 
	C711.490112,272.603424 713.240173,275.893982 710.846863,276.844208 
	C708.498779,274.693451 708.664368,271.734131 709.901428,269.407501 
	C711.149597,267.059998 713.906433,267.486176 716.078003,268.568115 
	C719.644836,270.345276 722.891113,267.645477 726.521301,268.068237 
	C730.012756,268.474854 733.709473,268.355438 737.578125,268.322571 
	C738.228943,271.761749 737.856262,275.966827 735.260864,276.682220 
	C733.052734,277.290924 728.417053,279.132477 726.799133,274.176819 
	C725.836548,275.426544 725.148804,276.319366 724.152344,277.313293 
z"/>
<path fill="#000000" opacity="1.000000" stroke="none" 
	d="
M706.701965,348.248779 
	C703.481995,347.726013 704.613220,350.034302 704.461975,351.428040 
	C704.295654,352.961365 705.386780,354.784393 702.831604,356.086456 
	C699.519043,353.058716 702.399597,347.919067 698.702515,344.840118 
	C701.916565,343.297211 704.650452,342.973541 707.180786,344.511353 
	C714.366150,348.878235 716.563477,348.783325 722.397888,342.815063 
	C724.109192,347.074646 723.356323,351.041779 722.802246,354.971130 
	C722.749695,355.343628 722.122986,355.915283 721.755798,355.920746 
	C717.166687,355.989136 712.552795,356.237244 707.998657,355.834503 
	C706.307129,355.684875 705.436340,353.608368 706.718140,351.862030 
	C707.615356,350.639709 708.173218,349.668610 706.701965,348.248779 
z"/>
<path fill="#000000" opacity="1.000000" stroke="none" 
	d="
M504.159851,267.410583 
	C508.208740,268.713043 512.136902,267.862091 515.696716,268.103699 
	C516.827576,270.458008 514.211914,271.392334 514.524475,272.364655 
	C514.950500,274.187836 515.768982,274.262268 516.622253,274.347656 
	C517.709351,274.456421 518.647888,274.896973 518.437683,276.177216 
	C518.228088,277.454163 517.200867,277.311920 516.145020,277.353149 
	C510.202393,277.585144 504.268555,277.508362 498.016785,276.928864 
	C496.274719,274.797943 496.929779,271.818420 496.644928,269.125916 
	C496.438080,267.170532 497.206604,265.087708 499.408508,264.337219 
	C502.008972,263.450836 502.778748,265.670410 504.159851,267.410583 
z"/>
<path fill="#000000" opacity="1.000000" stroke="none" 
	d="
M201.895844,422.186157 
	C206.499084,422.897644 210.898163,422.184052 214.973129,424.337280 
	C216.558411,425.174957 217.971603,425.627686 218.024323,427.613281 
	C218.083740,429.850983 219.224503,432.521545 216.743973,434.004272 
	C214.683197,435.236084 212.017685,435.806061 211.348267,432.394501 
	C210.987350,430.555206 212.099533,428.266266 209.356689,427.550812 
	C208.372543,427.294128 207.379395,427.834381 206.788620,428.724701 
	C205.405548,430.808960 207.821457,431.922363 208.398621,434.057892 
	C204.597733,434.854858 200.765976,436.616638 197.910858,433.047363 
	C196.023666,430.688110 198.828400,423.485291 201.895844,422.186157 
z"/>
<path fill="#000000" opacity="1.000000" stroke="none" 
	d="
M105.915733,434.314087 
	C104.142525,432.305542 102.286980,434.189331 100.384605,433.781403 
	C99.324982,430.238098 99.465233,426.730042 100.211510,422.888458 
	C103.195786,423.044769 106.136131,422.069580 108.375587,424.383545 
	C109.815315,423.847931 109.478149,421.999725 110.955856,421.905701 
	C114.672302,422.045441 120.395325,427.222412 120.154602,430.199585 
	C119.928268,432.998810 118.933968,435.051056 115.666351,434.927673 
	C112.192169,434.796509 112.296074,432.581696 112.765602,430.041992 
	C112.907310,429.275452 112.597404,428.425446 112.497398,427.637451 
	C106.648766,427.511017 106.503105,427.802917 109.307457,433.734680 
	C108.493538,434.929016 107.364326,434.742218 105.915733,434.314087 
z"/>
<path fill="#000000" opacity="1.000000" stroke="none" 
	d="
M517.989868,349.229309 
	C518.114441,347.025238 517.773132,345.121490 519.641357,343.525421 
	C522.241272,344.805786 525.006287,345.902802 527.999390,346.590515 
	C531.879517,347.482086 530.163452,351.132080 530.394836,353.734619 
	C530.609192,356.145477 529.091187,356.732513 527.062134,357.085938 
	C519.386475,358.422821 517.880859,357.233795 517.989868,349.229309 
z"/>
<path fill="#000000" opacity="1.000000" stroke="none" 
	d="
M188.076767,434.295837 
	C185.872238,433.923706 184.096008,433.601135 182.334290,433.212799 
	C180.467560,432.801300 179.104965,435.121521 176.711578,433.909912 
	C176.385925,430.215912 178.311218,426.720856 179.884674,423.641693 
	C181.671127,420.145813 183.502686,424.023285 185.131271,424.900360 
	C187.049057,425.026642 186.648987,421.452271 188.970276,422.646851 
	C190.642899,423.507599 190.361618,425.309631 190.131485,426.657654 
	C189.543915,430.099548 192.664932,430.841248 194.438812,432.623291 
	C192.851593,435.311340 190.372910,433.700165 188.076767,434.295837 
z"/>
<path fill="#000000" opacity="1.000000" stroke="none" 
	d="
M179.426559,234.463135 
	C176.985214,238.461914 172.054855,240.210724 168.245621,238.480194 
	C164.334396,236.703354 165.630219,232.662827 165.241547,229.664383 
	C164.997787,227.783829 166.845886,225.372147 169.688904,227.147202 
	C171.068481,228.008545 172.399033,228.096664 173.924255,228.140900 
	C177.686859,228.249985 179.821533,230.089310 179.426559,234.463135 
z"/>
<path fill="#000000" opacity="1.000000" stroke="none" 
	d="
M352.465942,287.119690 
	C355.929382,287.063171 359.083954,286.242065 362.929749,288.831573 
	C358.239532,290.769531 359.874664,297.620392 353.241241,297.405396 
	C349.715271,297.291138 346.092194,297.795837 345.355133,293.654816 
	C344.527679,289.005890 347.852417,287.334747 352.465942,287.119690 
z"/>
<path fill="#000000" opacity="1.000000" stroke="none" 
	d="
M577.534302,297.287659 
	C574.096558,297.843414 571.517761,297.016968 571.645813,293.569000 
	C571.761353,290.458496 572.584412,287.109619 577.138000,287.660065 
	C578.442017,287.817657 579.818237,288.055847 581.074036,287.810425 
	C585.546204,286.936432 587.220215,289.093750 587.090393,293.173309 
	C586.958008,297.331848 584.247498,297.848389 580.873352,297.347473 
	C579.902710,297.203400 578.899170,297.280823 577.534302,297.287659 
z"/>
<path fill="#000000" opacity="1.000000" stroke="none" 
	d="
M435.991089,351.244873 
	C435.624969,353.389130 437.019714,356.245697 433.940857,356.355225 
	C431.235535,356.451447 432.503967,353.536987 431.352234,351.409485 
	C431.143250,355.764435 428.837128,356.729065 425.516907,356.097412 
	C422.062012,355.440155 423.062103,352.639740 422.996429,350.513702 
	C422.927673,348.287048 422.522522,345.927704 423.960358,343.366364 
	C427.117188,345.201355 430.150360,346.506256 433.568237,346.919647 
	C435.301453,347.129303 435.967865,349.028046 435.991089,351.244873 
z"/>
<path fill="#000000" opacity="1.000000" stroke="none" 
	d="
M453.695923,394.870026 
	C451.253784,394.980011 448.297455,396.404510 447.338837,393.487732 
	C446.252411,390.182037 447.056335,386.609894 447.571625,383.176208 
	C447.605164,382.952515 448.205078,382.569733 448.329712,382.639496 
	C451.488556,384.407654 455.386536,384.698303 458.235809,386.568512 
	C460.401031,387.989777 460.563843,391.574097 459.232086,394.399475 
	C458.988678,394.915924 458.270111,395.208374 457.893036,395.507355 
	C454.915375,394.769257 456.883179,391.821472 455.252167,390.439514 
	C454.796967,391.934845 454.379944,393.304840 453.695923,394.870026 
z"/>
<path fill="#000000" opacity="1.000000" stroke="none" 
	d="
M440.423798,428.336334 
	C439.494202,430.591827 441.620636,432.042542 441.166077,433.967865 
	C438.933960,435.750000 436.468567,433.646942 433.986877,434.458984 
	C431.749451,435.191132 428.197754,435.437042 427.601013,431.772461 
	C426.991608,428.030273 430.033508,424.633789 433.632538,425.008545 
	C435.776733,425.231781 436.292114,423.156189 438.146484,423.034210 
	C439.911041,424.121063 441.763092,425.246124 440.423798,428.336334 
z"/>
<path fill="#000000" opacity="1.000000" stroke="none" 
	d="
M507.221497,287.260437 
	C507.907654,288.783234 508.477264,289.977051 509.070862,291.158844 
	C509.911346,292.832092 510.719055,294.630554 509.384979,296.282959 
	C508.108002,297.864655 506.593475,296.688171 505.383789,295.963074 
	C503.396393,294.771820 502.126770,297.500183 499.969940,296.639343 
	C499.212311,292.474182 501.445801,289.087921 503.515106,285.878326 
	C504.967438,283.625763 506.251160,285.335846 507.221497,287.260437 
z"/>
<path fill="#000000" opacity="1.000000" stroke="none" 
	d="
M183.245071,237.670975 
	C181.543411,233.801682 183.500809,230.742294 185.005035,227.669327 
	C185.697937,226.253799 187.401871,225.075699 188.569046,226.766891 
	C190.745728,229.920776 193.451706,233.167862 191.379654,238.006958 
	C188.718277,236.106094 186.117813,236.405243 183.245071,237.670975 
z"/>
<path fill="#000000" opacity="1.000000" stroke="none" 
	d="
M451.450775,425.997925 
	C454.137512,431.675476 453.249634,435.085114 449.395782,434.964844 
	C447.577057,434.908081 445.335693,434.602264 445.027283,432.516388 
	C444.682404,430.183899 444.700775,427.485992 446.393768,425.573547 
	C447.762512,424.027313 449.634613,424.196564 451.450775,425.997925 
z"/>
<path fill="#000000" opacity="1.000000" stroke="none" 
	d="
M693.552734,355.529480 
	C691.005737,352.842651 689.031006,356.410156 686.380432,355.542999 
	C686.142212,351.127014 688.512512,347.651794 690.585388,342.960724 
	C694.197083,346.980225 695.188416,350.953400 695.500488,355.157867 
	C695.547791,355.794250 694.551819,355.912750 693.552734,355.529480 
z"/>
<path fill="#000000" opacity="1.000000" stroke="none" 
	d="
M698.570679,272.196472 
	C698.680847,269.397278 699.661072,267.129547 702.300781,267.755371 
	C706.137573,268.665009 705.662354,272.090027 705.296997,275.109924 
	C704.951660,277.964233 702.779846,277.935852 700.813721,277.582428 
	C697.883301,277.055786 696.929932,275.297699 698.570679,272.196472 
z"/>
<path fill="#000000" opacity="1.000000" stroke="none" 
	d="
M760.034058,374.764221 
	C757.604309,371.743622 761.335144,369.841278 760.980347,367.012085 
	C760.798950,365.565582 765.491699,366.348785 766.214417,368.781921 
	C766.352661,369.247162 766.359497,369.767426 766.343201,370.259521 
	C766.294617,371.726990 766.204407,373.193054 766.130554,374.657837 
	C764.080078,375.676483 762.209656,375.826080 760.034058,374.764221 
z"/>
<path fill="#000000" opacity="1.000000" stroke="none" 
	d="
M767.000000,527.056885 
	C743.457275,527.056824 720.414551,527.056824 697.371765,527.056824 
	C697.375549,526.309753 697.379272,525.562744 697.383057,524.815674 
	C748.824280,524.055115 800.267456,523.659485 852.503601,524.658936 
	C850.497131,527.746887 848.024902,527.016235 845.987000,527.020630 
	C819.824768,527.076965 793.662354,527.057312 767.000000,527.056885 
z"/>
<path fill="#000000" opacity="1.000000" stroke="none" 
	d="
M800.932190,454.129547 
	C813.365356,470.665375 805.796631,492.142792 786.463440,496.129303 
	C772.846375,498.937164 758.362488,488.515320 756.694275,474.708954 
	C754.849670,459.443817 765.382141,446.408386 780.069580,445.653687 
	C788.237854,445.233978 795.063843,447.995300 800.932190,454.129547 
M768.333374,489.252594 
	C770.489990,490.876129 772.937012,491.923492 775.494446,492.680603 
	C783.465454,495.040314 790.670776,493.541107 796.767151,487.877960 
	C803.022644,482.066925 806.054749,474.927216 804.124268,466.331970 
	C801.945007,456.629730 793.910767,449.269836 784.979004,448.425476 
	C774.430542,447.428314 764.939941,452.713715 760.952576,461.806061 
	C756.792542,471.292145 759.271729,481.101868 768.333374,489.252594 
z"/>
<path fill="#000000" opacity="1.000000" stroke="none" 
	d="
M865.167603,521.621033 
	C867.845947,524.220032 867.453369,526.759338 865.447388,529.634766 
	C861.971985,527.553894 856.592834,531.341553 854.073853,525.327087 
	C856.305542,523.414612 857.898071,520.157288 862.042480,522.192932 
	C862.708130,522.519836 863.900269,521.774780 865.167603,521.621033 
z"/>
<path fill="#000000" opacity="1.000000" stroke="none" 
	d="
M869.374634,523.062622 
	C870.870117,520.865967 878.358032,519.149780 879.966125,520.646423 
	C882.684143,523.176147 881.956604,527.013550 880.757080,529.430298 
	C879.112244,532.744324 875.034241,530.404297 872.061340,530.856384 
	C869.985352,531.171997 869.454163,529.252502 869.444519,527.409119 
	C869.437561,526.079346 869.370300,524.749817 869.374634,523.062622 
M875.654114,522.401550 
	C873.412964,522.614197 871.741150,523.481689 871.887573,526.068787 
	C871.972229,527.563904 872.800232,528.541321 874.415649,528.628784 
	C876.128174,528.721497 877.933289,528.775879 878.517883,526.714966 
	C879.069214,524.771362 878.770020,523.028320 875.654114,522.401550 
z"/>
<path fill="#000000" opacity="1.000000" stroke="none" 
	d="
M687.535950,530.538940 
	C683.286377,527.559265 685.703613,523.996582 685.746948,520.208801 
	C689.635803,521.138611 692.122559,522.828674 694.099976,525.420532 
	C692.707153,528.117615 690.069397,528.994995 687.535950,530.538940 
z"/>
<path fill="#000000" opacity="1.000000" stroke="none" 
	d="
M280.034424,144.947403 
	C282.103180,141.609604 283.985626,140.182449 288.300110,141.318680 
	C292.014221,142.296768 296.390594,140.664551 300.555359,140.812363 
	C303.648682,140.922165 305.836365,141.817322 306.381836,144.966614 
	C306.923004,148.091125 305.330566,150.154800 302.315918,150.823730 
	C300.291809,151.272873 298.592133,152.131180 296.997559,153.384277 
	C295.059845,154.907059 292.631866,155.241577 291.088898,153.435730 
	C287.856262,149.652359 283.610748,150.079498 279.691956,150.536423 
	C274.988892,151.084747 273.023926,149.727859 273.635040,145.009308 
	C273.912842,142.864120 272.652588,140.400391 274.891876,138.400589 
	C277.554932,139.545334 276.256958,141.899399 276.791199,143.577286 
	C277.253448,145.029007 276.990723,148.150528 280.034424,144.947403 
z"/>
<path fill="#000000" opacity="1.000000" stroke="none" 
	d="
M327.853394,150.878113 
	C323.349426,149.533661 318.259430,152.038239 314.907196,147.703003 
	C313.296661,147.663223 313.777313,150.188248 311.261108,149.937286 
	C309.263367,146.460632 309.831970,142.658157 310.857513,138.958115 
	C313.549530,137.901474 313.362152,141.117111 315.311188,141.167404 
	C316.104553,140.326599 316.966614,139.413010 318.179871,138.127197 
	C320.093658,141.657791 323.145691,141.227570 326.187653,141.110916 
	C329.606079,140.979813 333.110046,141.514801 336.433594,140.936691 
	C339.475189,140.407623 341.553436,140.876892 342.101410,143.900757 
	C342.528259,146.256256 342.917908,149.331924 340.163513,150.533020 
	C337.132751,151.854584 335.214447,149.765076 333.968628,147.106110 
	C333.907013,146.974533 333.725403,146.899124 333.325684,146.576294 
	C332.382355,148.898102 331.332184,151.218597 327.853394,150.878113 
z"/>
<path fill="#000000" opacity="1.000000" stroke="none" 
	d="
M785.930664,477.974701 
	C783.432861,479.658203 781.304016,481.257965 779.023865,482.600708 
	C776.364197,484.166901 774.572815,483.781342 774.602051,480.165558 
	C774.650391,474.196777 774.543701,468.225159 774.692322,462.259430 
	C774.792542,458.235809 776.154846,457.581329 779.610291,459.797058 
	C783.516663,462.301849 787.375366,464.888062 791.164795,467.566162 
	C795.271606,470.468536 795.240723,471.494476 791.178162,474.437134 
	C789.567993,475.603455 787.883362,476.666962 785.930664,477.974701 
z"/>
</svg>